<?xml version="1.0" encoding="utf-8" standalone="no"?>
<!DOCTYPE svg PUBLIC "-//W3C//DTD SVG 1.1//EN"
  "http://www.w3.org/Graphics/SVG/1.1/DTD/svg11.dtd">
<svg xmlns:xlink="http://www.w3.org/1999/xlink" width="341.455625pt" height="217.963438pt" viewBox="0 0 341.455625 217.963438" xmlns="http://www.w3.org/2000/svg" version="1.1">
 <metadata>
  <rdf:RDF xmlns:dc="http://purl.org/dc/elements/1.1/" xmlns:cc="http://creativecommons.org/ns#" xmlns:rdf="http://www.w3.org/1999/02/22-rdf-syntax-ns#">
   <cc:Work>
    <dc:type rdf:resource="http://purl.org/dc/dcmitype/StillImage"/>
    <dc:date>2025-05-10T18:25:58.519648</dc:date>
    <dc:format>image/svg+xml</dc:format>
    <dc:creator>
     <cc:Agent>
      <dc:title>Matplotlib v3.9.4, https://matplotlib.org/</dc:title>
     </cc:Agent>
    </dc:creator>
   </cc:Work>
  </rdf:RDF>
 </metadata>
 <defs>
  <style type="text/css">*{stroke-linejoin: round; stroke-linecap: butt}</style>
 </defs>
 <g id="figure_1">
  <g id="patch_1">
   <path d="M 0 217.963438 
L 341.455625 217.963438 
L 341.455625 0 
L 0 0 
z
" style="fill: #ffffff"/>
  </g>
  <g id="axes_1">
   <g id="patch_2">
    <path d="M 45.854375 177.814688 
L 224.414375 177.814688 
L 224.414375 11.494688 
L 45.854375 11.494688 
z
" style="fill: #ffffff"/>
   </g>
   <g id="QuadContourSet_1">
    <path d="M 78.65111 177.814688 
L 82.295191 177.814688 
L 85.939273 177.814688 
L 89.583355 177.814688 
L 93.227436 177.814688 
L 96.871518 177.814688 
L 100.515599 177.814688 
L 104.159681 177.814688 
L 107.803763 177.814688 
L 111.447844 177.814688 
L 115.091926 177.814688 
L 118.736008 177.814688 
L 122.380089 177.814688 
L 126.024171 177.814688 
L 129.668253 177.814688 
L 133.312334 177.814688 
L 136.956416 177.814688 
L 140.600497 177.814688 
L 144.244579 177.814688 
L 147.888661 177.814688 
L 151.532742 177.814688 
L 155.176824 177.814688 
L 158.820906 177.814688 
L 162.464987 177.814688 
L 166.109069 177.814688 
L 169.753151 177.814688 
L 173.397232 177.814688 
L 177.041314 177.814688 
L 180.685395 177.814688 
L 184.329477 177.814688 
L 187.973559 177.814688 
L 191.61764 177.814688 
L 195.261722 177.814688 
L 198.905804 177.814688 
L 202.549885 177.814688 
L 206.193967 177.814688 
L 209.838048 177.814688 
L 213.48213 177.814688 
L 217.126212 177.814688 
L 220.770293 177.814688 
L 224.414375 177.814688 
L 224.414375 174.420402 
L 224.414375 171.026116 
L 224.414375 167.63183 
L 224.414375 164.237545 
L 224.414375 160.843259 
L 224.414375 157.448973 
L 224.414375 154.054688 
L 224.414375 150.660402 
L 224.414375 147.266116 
L 224.414375 143.87183 
L 224.414375 140.477545 
L 224.414375 137.083259 
L 224.414375 133.688973 
L 224.414375 130.294688 
L 224.414375 126.900402 
L 224.414375 123.506116 
L 224.414375 120.11183 
L 224.414375 116.717545 
L 224.414375 113.323259 
L 224.414375 109.928973 
L 224.414375 106.534688 
L 224.414375 103.140402 
L 224.414375 99.746116 
L 224.414375 96.35183 
L 224.414375 92.957545 
L 224.414375 89.563259 
L 224.414375 86.168973 
L 224.414375 83.042418 
L 221.449476 86.168973 
L 220.770293 86.858996 
L 218.161397 89.563259 
L 217.126212 90.596382 
L 214.80688 92.957545 
L 213.48213 94.255169 
L 211.383131 96.35183 
L 209.838048 97.835817 
L 207.887073 99.746116 
L 206.193967 101.338963 
L 204.315027 103.140402 
L 202.549885 104.765233 
L 200.662808 106.534688 
L 198.905804 108.115196 
L 196.925421 109.928973 
L 195.261722 111.389569 
L 193.097071 113.323259 
L 191.61764 114.588973 
L 189.170833 116.717545 
L 187.973559 117.714198 
L 185.138587 120.11183 
L 184.329477 120.766018 
L 180.990531 123.506116 
L 180.685395 123.745276 
L 177.041314 126.650546 
L 176.733462 126.900402 
L 173.397232 129.481838 
L 172.36088 130.294688 
L 169.753151 132.24257 
L 167.839985 133.688973 
L 166.109069 134.933804 
L 163.150792 137.083259 
L 162.464987 137.556704 
L 158.820906 140.108468 
L 158.302636 140.477545 
L 155.176824 142.587943 
L 153.288349 143.87183 
L 151.532742 145.001872 
L 148.028949 147.266116 
L 147.888661 147.351828 
L 144.244579 149.623248 
L 142.582852 150.660402 
L 140.600497 151.828499 
L 136.956416 153.962043 
L 136.792936 154.054688 
L 133.312334 155.922084 
L 130.389147 157.448973 
L 129.668253 157.804617 
L 126.024171 159.590932 
L 123.412565 160.843259 
L 122.380089 161.3087 
L 118.736008 162.952531 
L 115.813566 164.237545 
L 115.091926 164.535254 
L 111.447844 166.045222 
L 107.803763 167.498145 
L 107.472128 167.63183 
L 104.159681 168.879866 
L 100.515599 170.203641 
L 98.202408 171.026116 
L 96.871518 171.46796 
L 93.227436 172.669059 
L 89.583355 173.818764 
L 87.647311 174.420402 
L 85.939273 174.915244 
L 82.295191 175.962367 
L 78.65111 176.974073 
L 75.585433 177.814688 
z
" clip-path="url(#p38695d9a2f)" style="fill: #52886a"/>
    <path d="M 45.854375 177.548746 
L 45.854375 177.814688 
L 46.178222 177.814688 
z
M 56.78662 177.814688 
L 60.430702 177.814688 
L 64.074783 177.814688 
L 67.718865 177.814688 
L 71.362946 177.814688 
L 75.007028 177.814688 
L 75.585433 177.814688 
L 78.65111 176.974073 
L 82.295191 175.962367 
L 85.939273 174.915244 
L 87.647311 174.420402 
L 89.583355 173.818764 
L 93.227436 172.669059 
L 96.871518 171.46796 
L 98.202408 171.026116 
L 100.515599 170.203641 
L 104.159681 168.879866 
L 107.472128 167.63183 
L 107.803763 167.498145 
L 111.447844 166.045222 
L 115.091926 164.535254 
L 115.813566 164.237545 
L 118.736008 162.952531 
L 122.380089 161.3087 
L 123.412565 160.843259 
L 126.024171 159.590932 
L 129.668253 157.804617 
L 130.389147 157.448973 
L 133.312334 155.922084 
L 136.792936 154.054688 
L 136.956416 153.962043 
L 140.600497 151.828499 
L 142.582852 150.660402 
L 144.244579 149.623248 
L 147.888661 147.351828 
L 148.028949 147.266116 
L 151.532742 145.001872 
L 153.288349 143.87183 
L 155.176824 142.587943 
L 158.302636 140.477545 
L 158.820906 140.108468 
L 162.464987 137.556704 
L 163.150792 137.083259 
L 166.109069 134.933804 
L 167.839985 133.688973 
L 169.753151 132.24257 
L 172.36088 130.294688 
L 173.397232 129.481838 
L 176.733462 126.900402 
L 177.041314 126.650546 
L 180.685395 123.745276 
L 180.990531 123.506116 
L 184.329477 120.766018 
L 185.138587 120.11183 
L 187.973559 117.714198 
L 189.170833 116.717545 
L 191.61764 114.588973 
L 193.097071 113.323259 
L 195.261722 111.389569 
L 196.925421 109.928973 
L 198.905804 108.115196 
L 200.662808 106.534688 
L 202.549885 104.765233 
L 204.315027 103.140402 
L 206.193967 101.338963 
L 207.887073 99.746116 
L 209.838048 97.835817 
L 211.383131 96.35183 
L 213.48213 94.255169 
L 214.80688 92.957545 
L 217.126212 90.596382 
L 218.161397 89.563259 
L 220.770293 86.858996 
L 221.449476 86.168973 
L 224.414375 83.042418 
L 224.414375 82.774688 
L 224.414375 79.380402 
L 224.414375 75.986116 
L 224.414375 72.59183 
L 224.414375 69.197545 
L 224.414375 65.803259 
L 224.414375 62.408973 
L 224.414375 59.014688 
L 224.414375 55.620402 
L 224.414375 52.226116 
L 224.414375 48.83183 
L 224.414375 45.437545 
L 224.414375 42.043259 
L 224.414375 38.648973 
L 224.414375 35.254688 
L 224.414375 31.860402 
L 224.414375 28.466116 
L 224.414375 25.07183 
L 224.414375 21.677545 
L 224.414375 18.283259 
L 224.414375 14.888973 
L 224.414375 11.494688 
L 220.770293 11.494688 
L 217.126212 11.494688 
L 213.48213 11.494688 
L 209.838048 11.494688 
L 206.193967 11.494688 
L 206.170454 11.494688 
L 204.548332 14.888973 
L 202.868246 18.283259 
L 202.549885 18.91101 
L 201.193074 21.677545 
L 199.470869 25.07183 
L 198.905804 26.15553 
L 197.74077 28.466116 
L 195.971062 31.860402 
L 195.261722 33.181313 
L 194.185076 35.254688 
L 192.361859 38.648973 
L 191.61764 39.992308 
L 190.518834 42.043259 
L 188.634868 45.437545 
L 187.973559 46.592149 
L 186.732919 48.83183 
L 184.779825 52.226116 
L 184.329477 52.985052 
L 182.816766 55.620402 
L 180.784565 59.014688 
L 180.685395 59.175605 
L 178.757366 62.408973 
L 177.041314 65.162863 
L 176.655267 65.803259 
L 174.538666 69.197545 
L 173.397232 70.954054 
L 172.367167 72.59183 
L 170.140682 75.986116 
L 169.753151 76.556163 
L 167.893839 79.380402 
L 166.109069 81.967143 
L 165.569494 82.774688 
L 163.208159 86.168973 
L 162.464987 87.192929 
L 160.797499 89.563259 
L 158.820906 92.238449 
L 158.305883 92.957545 
L 155.76606 96.35183 
L 155.176824 97.104951 
L 153.171159 99.746116 
L 151.532742 101.795734 
L 150.489086 103.140402 
L 147.888661 106.319943 
L 147.718057 106.534688 
L 144.894283 109.928973 
L 144.244579 110.670554 
L 141.982375 113.323259 
L 140.600497 114.857172 
L 138.967764 116.717545 
L 136.956416 118.884405 
L 135.845357 120.11183 
L 133.312334 122.754403 
L 132.608798 123.506116 
L 129.668253 126.469623 
L 129.25031 126.900402 
L 126.024171 130.032593 
L 125.759747 130.294688 
L 122.380089 133.44608 
L 122.12441 133.688973 
L 118.736008 136.713051 
L 118.327837 137.083259 
L 115.091926 139.836659 
L 114.348609 140.477545 
L 111.447844 142.820484 
L 110.158692 143.87183 
L 107.803763 145.668354 
L 105.720711 147.266116 
L 104.159681 148.384524 
L 100.984177 150.660402 
L 100.515599 150.973641 
L 96.871518 153.43076 
L 95.948015 154.054688 
L 93.227436 155.764539 
L 90.516268 157.448973 
L 89.583355 157.9874 
L 85.939273 160.095021 
L 84.644036 160.843259 
L 82.295191 162.10029 
L 78.65111 164.023951 
L 78.257785 164.237545 
L 75.007028 165.867504 
L 71.479365 167.63183 
L 71.362946 167.685485 
L 67.718865 169.498951 
L 64.85918 171.026116 
L 64.074783 171.408626 
L 60.430702 173.506678 
L 59.166628 174.420402 
L 56.78662 175.945942 
L 54.561268 177.814688 
z
" clip-path="url(#p38695d9a2f)" style="fill: #639378"/>
    <path d="M 49.498457 177.814688 
L 53.142538 177.814688 
L 54.561268 177.814688 
L 56.78662 175.945942 
L 59.166628 174.420402 
L 60.430702 173.506678 
L 64.074783 171.408626 
L 64.85918 171.026116 
L 67.718865 169.498951 
L 71.362946 167.685485 
L 71.479365 167.63183 
L 75.007028 165.867504 
L 78.257785 164.237545 
L 78.65111 164.023951 
L 82.295191 162.10029 
L 84.644036 160.843259 
L 85.939273 160.095021 
L 89.583355 157.9874 
L 90.516268 157.448973 
L 93.227436 155.764539 
L 95.948015 154.054688 
L 96.871518 153.43076 
L 100.515599 150.973641 
L 100.984177 150.660402 
L 104.159681 148.384524 
L 105.720711 147.266116 
L 107.803763 145.668354 
L 110.158692 143.87183 
L 111.447844 142.820484 
L 114.348609 140.477545 
L 115.091926 139.836659 
L 118.327837 137.083259 
L 118.736008 136.713051 
L 122.12441 133.688973 
L 122.380089 133.44608 
L 125.759747 130.294688 
L 126.024171 130.032593 
L 129.25031 126.900402 
L 129.668253 126.469623 
L 132.608798 123.506116 
L 133.312334 122.754403 
L 135.845357 120.11183 
L 136.956416 118.884405 
L 138.967764 116.717545 
L 140.600497 114.857172 
L 141.982375 113.323259 
L 144.244579 110.670554 
L 144.894283 109.928973 
L 147.718057 106.534688 
L 147.888661 106.319943 
L 150.489086 103.140402 
L 151.532742 101.795734 
L 153.171159 99.746116 
L 155.176824 97.104951 
L 155.76606 96.35183 
L 158.305883 92.957545 
L 158.820906 92.238449 
L 160.797499 89.563259 
L 162.464987 87.192929 
L 163.208159 86.168973 
L 165.569494 82.774688 
L 166.109069 81.967143 
L 167.893839 79.380402 
L 169.753151 76.556163 
L 170.140682 75.986116 
L 172.367167 72.59183 
L 173.397232 70.954054 
L 174.538666 69.197545 
L 176.655267 65.803259 
L 177.041314 65.162863 
L 178.757366 62.408973 
L 180.685395 59.175605 
L 180.784565 59.014688 
L 182.816766 55.620402 
L 184.329477 52.985052 
L 184.779825 52.226116 
L 186.732919 48.83183 
L 187.973559 46.592149 
L 188.634868 45.437545 
L 190.518834 42.043259 
L 191.61764 39.992308 
L 192.361859 38.648973 
L 194.185076 35.254688 
L 195.261722 33.181313 
L 195.971062 31.860402 
L 197.74077 28.466116 
L 198.905804 26.15553 
L 199.470869 25.07183 
L 201.193074 21.677545 
L 202.549885 18.91101 
L 202.868246 18.283259 
L 204.548332 14.888973 
L 206.170454 11.494688 
L 202.549885 11.494688 
L 198.905804 11.494688 
L 195.261722 11.494688 
L 191.61764 11.494688 
L 187.973559 11.494688 
L 184.329477 11.494688 
L 180.685395 11.494688 
L 177.041314 11.494688 
L 173.397232 11.494688 
L 169.753151 11.494688 
L 168.57576 11.494688 
L 167.21268 14.888973 
L 166.109069 17.551835 
L 165.817818 18.283259 
L 164.431739 21.677545 
L 162.995215 25.07183 
L 162.464987 26.29019 
L 161.555196 28.466116 
L 160.089211 31.860402 
L 158.820906 34.693743 
L 158.579678 35.254688 
L 157.079788 38.648973 
L 155.518882 42.043259 
L 155.176824 42.765987 
L 153.961853 45.437545 
L 152.35748 48.83183 
L 151.532742 50.517125 
L 150.729092 52.226116 
L 149.074624 55.620402 
L 147.888661 57.958665 
L 147.373925 59.014688 
L 145.661408 62.408973 
L 144.244579 65.096845 
L 143.886661 65.803259 
L 142.106701 69.197545 
L 140.600497 71.938865 
L 140.255523 72.59183 
L 138.396433 75.986116 
L 136.956416 78.492158 
L 136.465376 79.380402 
L 134.512996 82.774688 
L 133.312334 84.765032 
L 132.496994 86.168973 
L 130.433599 89.563259 
L 129.668253 90.766613 
L 128.325515 92.957545 
L 126.128608 96.35183 
L 126.024171 96.506826 
L 123.918329 99.746116 
L 122.380089 101.980396 
L 121.609273 103.140402 
L 119.231853 106.534688 
L 118.736008 107.208476 
L 116.800077 109.928973 
L 115.091926 112.188869 
L 114.262161 113.323259 
L 111.627435 116.717545 
L 111.447844 116.937336 
L 108.930815 120.11183 
L 107.803763 121.445781 
L 106.112322 123.506116 
L 104.159681 125.735008 
L 103.166095 126.900402 
L 100.515599 129.809202 
L 100.084352 130.294688 
L 96.871518 133.673574 
L 96.857217 133.688973 
L 93.490065 137.083259 
L 93.227436 137.330106 
L 89.938776 140.477545 
L 89.583355 140.794117 
L 86.182755 143.87183 
L 85.939273 144.076548 
L 82.295191 147.189885 
L 82.208081 147.266116 
L 78.65111 150.147849 
L 78.034083 150.660402 
L 75.007028 152.982856 
L 73.659588 154.054688 
L 71.362946 155.737082 
L 69.15841 157.448973 
L 67.718865 158.474391 
L 64.701443 160.843259 
L 64.074783 161.291899 
L 60.556997 164.237545 
L 60.430702 164.333049 
L 56.971827 167.63183 
L 56.78662 167.788608 
L 53.961489 171.026116 
L 53.142538 171.833194 
L 49.645588 174.420402 
L 49.498457 174.507164 
L 49.394584 174.420402 
L 45.854375 171.041338 
L 45.854375 174.420402 
L 45.854375 177.548746 
L 46.178222 177.814688 
z
" clip-path="url(#p38695d9a2f)" style="fill: #739e87"/>
    <path d="M 49.498457 174.507164 
L 49.645588 174.420402 
L 53.142538 171.833194 
L 53.961489 171.026116 
L 56.78662 167.788608 
L 56.971827 167.63183 
L 60.430702 164.333049 
L 60.556997 164.237545 
L 64.074783 161.291899 
L 64.701443 160.843259 
L 67.718865 158.474391 
L 69.15841 157.448973 
L 71.362946 155.737082 
L 73.659588 154.054688 
L 75.007028 152.982856 
L 78.034083 150.660402 
L 78.65111 150.147849 
L 82.208081 147.266116 
L 82.295191 147.189885 
L 85.939273 144.076548 
L 86.182755 143.87183 
L 89.583355 140.794117 
L 89.938776 140.477545 
L 93.227436 137.330106 
L 93.490065 137.083259 
L 96.857217 133.688973 
L 96.871518 133.673574 
L 100.084352 130.294688 
L 100.515599 129.809202 
L 103.166095 126.900402 
L 104.159681 125.735008 
L 106.112322 123.506116 
L 107.803763 121.445781 
L 108.930815 120.11183 
L 111.447844 116.937336 
L 111.627435 116.717545 
L 114.262161 113.323259 
L 115.091926 112.188869 
L 116.800077 109.928973 
L 118.736008 107.208476 
L 119.231853 106.534688 
L 121.609273 103.140402 
L 122.380089 101.980396 
L 123.918329 99.746116 
L 126.024171 96.506826 
L 126.128608 96.35183 
L 128.325515 92.957545 
L 129.668253 90.766613 
L 130.433599 89.563259 
L 132.496994 86.168973 
L 133.312334 84.765032 
L 134.512996 82.774688 
L 136.465376 79.380402 
L 136.956416 78.492158 
L 138.396433 75.986116 
L 140.255523 72.59183 
L 140.600497 71.938865 
L 142.106701 69.197545 
L 143.886661 65.803259 
L 144.244579 65.096845 
L 145.661408 62.408973 
L 147.373925 59.014688 
L 147.888661 57.958665 
L 149.074624 55.620402 
L 150.729092 52.226116 
L 151.532742 50.517125 
L 152.35748 48.83183 
L 153.961853 45.437545 
L 155.176824 42.765987 
L 155.518882 42.043259 
L 157.079788 38.648973 
L 158.579678 35.254688 
L 158.820906 34.693743 
L 160.089211 31.860402 
L 161.555196 28.466116 
L 162.464987 26.29019 
L 162.995215 25.07183 
L 164.431739 21.677545 
L 165.817818 18.283259 
L 166.109069 17.551835 
L 167.21268 14.888973 
L 168.57576 11.494688 
L 166.109069 11.494688 
L 162.464987 11.494688 
L 158.820906 11.494688 
L 155.176824 11.494688 
L 151.532742 11.494688 
L 147.888661 11.494688 
L 144.244579 11.494688 
L 144.137745 11.494688 
L 142.967556 14.888973 
L 141.757231 18.283259 
L 140.600497 21.420006 
L 140.50964 21.677545 
L 139.282866 25.07183 
L 138.011195 28.466116 
L 136.956416 31.186852 
L 136.706601 31.860402 
L 135.412892 35.254688 
L 134.068546 38.648973 
L 133.312334 40.496305 
L 132.706417 42.043259 
L 131.332809 45.437545 
L 129.901334 48.83183 
L 129.668253 49.368407 
L 128.480133 52.226116 
L 127.009951 55.620402 
L 126.024171 57.809701 
L 125.50478 59.014688 
L 123.989235 62.408973 
L 122.400821 65.803259 
L 122.380089 65.846214 
L 120.830614 69.197545 
L 119.181772 72.59183 
L 118.736008 73.475957 
L 117.523131 75.986116 
L 115.802619 79.380402 
L 115.091926 80.724629 
L 114.052576 82.774688 
L 112.246656 86.168973 
L 111.447844 87.603687 
L 110.400716 89.563259 
L 108.49206 92.957545 
L 107.803763 94.125701 
L 106.543496 96.35183 
L 104.509889 99.746116 
L 104.159681 100.304667 
L 102.448999 103.140402 
L 100.515599 106.150105 
L 100.277816 106.534688 
L 98.074271 109.928973 
L 96.871518 111.670936 
L 95.771519 113.323259 
L 93.361079 116.717545 
L 93.227436 116.896234 
L 90.903895 120.11183 
L 89.583355 121.818294 
L 88.321624 123.506116 
L 85.939273 126.476506 
L 85.611216 126.900402 
L 82.808145 130.294688 
L 82.295191 130.875042 
L 79.895988 133.688973 
L 78.65111 135.043542 
L 76.854039 137.083259 
L 75.007028 139.023425 
L 73.69624 140.477545 
L 71.362946 142.865793 
L 70.452823 143.87183 
L 67.718865 146.649177 
L 67.177165 147.266116 
L 64.074783 150.494991 
L 63.940806 150.660402 
L 60.937267 154.054688 
L 60.430702 154.574323 
L 58.233277 157.448973 
L 56.78662 159.136463 
L 55.723923 160.843259 
L 53.303485 164.237545 
L 53.142538 164.439956 
L 50.538653 167.63183 
L 49.498457 168.640807 
L 48.54406 167.63183 
L 45.854375 164.499858 
L 45.854375 167.63183 
L 45.854375 171.026116 
L 45.854375 171.041338 
L 49.394584 174.420402 
z
" clip-path="url(#p38695d9a2f)" style="fill: #83a994"/>
    <path d="M 49.498457 168.640807 
L 50.538653 167.63183 
L 53.142538 164.439956 
L 53.303485 164.237545 
L 55.723923 160.843259 
L 56.78662 159.136463 
L 58.233277 157.448973 
L 60.430702 154.574323 
L 60.937267 154.054688 
L 63.940806 150.660402 
L 64.074783 150.494991 
L 67.177165 147.266116 
L 67.718865 146.649177 
L 70.452823 143.87183 
L 71.362946 142.865793 
L 73.69624 140.477545 
L 75.007028 139.023425 
L 76.854039 137.083259 
L 78.65111 135.043542 
L 79.895988 133.688973 
L 82.295191 130.875042 
L 82.808145 130.294688 
L 85.611216 126.900402 
L 85.939273 126.476506 
L 88.321624 123.506116 
L 89.583355 121.818294 
L 90.903895 120.11183 
L 93.227436 116.896234 
L 93.361079 116.717545 
L 95.771519 113.323259 
L 96.871518 111.670936 
L 98.074271 109.928973 
L 100.277816 106.534688 
L 100.515599 106.150105 
L 102.448999 103.140402 
L 104.159681 100.304667 
L 104.509889 99.746116 
L 106.543496 96.35183 
L 107.803763 94.125701 
L 108.49206 92.957545 
L 110.400716 89.563259 
L 111.447844 87.603687 
L 112.246656 86.168973 
L 114.052576 82.774688 
L 115.091926 80.724629 
L 115.802619 79.380402 
L 117.523131 75.986116 
L 118.736008 73.475957 
L 119.181772 72.59183 
L 120.830614 69.197545 
L 122.380089 65.846214 
L 122.400821 65.803259 
L 123.989235 62.408973 
L 125.50478 59.014688 
L 126.024171 57.809701 
L 127.009951 55.620402 
L 128.480133 52.226116 
L 129.668253 49.368407 
L 129.901334 48.83183 
L 131.332809 45.437545 
L 132.706417 42.043259 
L 133.312334 40.496305 
L 134.068546 38.648973 
L 135.412892 35.254688 
L 136.706601 31.860402 
L 136.956416 31.186852 
L 138.011195 28.466116 
L 139.282866 25.07183 
L 140.50964 21.677545 
L 140.600497 21.420006 
L 141.757231 18.283259 
L 142.967556 14.888973 
L 144.137745 11.494688 
L 140.600497 11.494688 
L 136.956416 11.494688 
L 133.312334 11.494688 
L 129.668253 11.494688 
L 126.341825 11.494688 
L 126.024171 12.475334 
L 125.27824 14.888973 
L 124.196943 18.283259 
L 123.078148 21.677545 
L 122.380089 23.731921 
L 121.945733 25.07183 
L 120.81341 28.466116 
L 119.639219 31.860402 
L 118.736008 34.383753 
L 118.438577 35.254688 
L 117.245487 38.648973 
L 116.005067 42.043259 
L 115.091926 44.453474 
L 114.736149 45.437545 
L 113.470024 48.83183 
L 112.149728 52.226116 
L 111.447844 53.966978 
L 110.811477 55.620402 
L 109.456435 59.014688 
L 108.038483 62.408973 
L 107.803763 62.952621 
L 106.628217 65.803259 
L 105.163453 69.197545 
L 104.159681 71.424688 
L 103.657134 72.59183 
L 102.136882 75.986116 
L 100.534513 79.380402 
L 100.515599 79.419088 
L 98.946723 82.774688 
L 97.268614 86.168973 
L 96.871518 86.939402 
L 95.577701 89.563259 
L 93.808645 92.957545 
L 93.227436 94.022058 
L 92.010149 96.35183 
L 90.131389 99.746116 
L 89.583355 100.688819 
L 88.219489 103.140402 
L 86.207753 106.534688 
L 85.939273 106.96612 
L 84.176226 109.928973 
L 82.295191 112.878486 
L 82.025017 113.323259 
L 79.847683 116.717545 
L 78.65111 118.460292 
L 77.576923 120.11183 
L 75.205525 123.506116 
L 75.007028 123.774071 
L 72.836695 126.900402 
L 71.362946 128.863947 
L 70.378306 130.294688 
L 67.84852 133.688973 
L 67.718865 133.851871 
L 65.439244 137.083259 
L 64.074783 138.854896 
L 63.025105 140.477545 
L 60.618171 143.87183 
L 60.430702 144.117086 
L 58.547665 147.266116 
L 56.78662 149.906295 
L 56.422317 150.660402 
L 54.630089 154.054688 
L 53.142538 156.54673 
L 52.688419 157.448973 
L 50.676701 160.843259 
L 49.498457 162.468186 
L 48.174979 160.843259 
L 45.854375 157.830365 
L 45.854375 160.843259 
L 45.854375 164.237545 
L 45.854375 164.499858 
L 48.54406 167.63183 
z
" clip-path="url(#p38695d9a2f)" style="fill: #93b4a2"/>
    <path d="M 49.498457 162.468186 
L 50.676701 160.843259 
L 52.688419 157.448973 
L 53.142538 156.54673 
L 54.630089 154.054688 
L 56.422317 150.660402 
L 56.78662 149.906295 
L 58.547665 147.266116 
L 60.430702 144.117086 
L 60.618171 143.87183 
L 63.025105 140.477545 
L 64.074783 138.854896 
L 65.439244 137.083259 
L 67.718865 133.851871 
L 67.84852 133.688973 
L 70.378306 130.294688 
L 71.362946 128.863947 
L 72.836695 126.900402 
L 75.007028 123.774071 
L 75.205525 123.506116 
L 77.576923 120.11183 
L 78.65111 118.460292 
L 79.847683 116.717545 
L 82.025017 113.323259 
L 82.295191 112.878486 
L 84.176226 109.928973 
L 85.939273 106.96612 
L 86.207753 106.534688 
L 88.219489 103.140402 
L 89.583355 100.688819 
L 90.131389 99.746116 
L 92.010149 96.35183 
L 93.227436 94.022058 
L 93.808645 92.957545 
L 95.577701 89.563259 
L 96.871518 86.939402 
L 97.268614 86.168973 
L 98.946723 82.774688 
L 100.515599 79.419088 
L 100.534513 79.380402 
L 102.136882 75.986116 
L 103.657134 72.59183 
L 104.159681 71.424688 
L 105.163453 69.197545 
L 106.628217 65.803259 
L 107.803763 62.952621 
L 108.038483 62.408973 
L 109.456435 59.014688 
L 110.811477 55.620402 
L 111.447844 53.966978 
L 112.149728 52.226116 
L 113.470024 48.83183 
L 114.736149 45.437545 
L 115.091926 44.453474 
L 116.005067 42.043259 
L 117.245487 38.648973 
L 118.438577 35.254688 
L 118.736008 34.383753 
L 119.639219 31.860402 
L 120.81341 28.466116 
L 121.945733 25.07183 
L 122.380089 23.731921 
L 123.078148 21.677545 
L 124.196943 18.283259 
L 125.27824 14.888973 
L 126.024171 12.475334 
L 126.341825 11.494688 
L 126.024171 11.494688 
L 122.380089 11.494688 
L 118.736008 11.494688 
L 115.091926 11.494688 
L 112.462118 11.494688 
L 111.454805 14.888973 
L 111.447844 14.911888 
L 110.472949 18.283259 
L 109.45775 21.677545 
L 108.40664 25.07183 
L 107.803763 26.960162 
L 107.346087 28.466116 
L 106.283062 31.860402 
L 105.179933 35.254688 
L 104.159681 38.280871 
L 104.04156 38.648973 
L 102.921538 42.043259 
L 101.75595 45.437545 
L 100.541907 48.83183 
L 100.515599 48.903314 
L 99.351278 52.226116 
L 98.110168 55.620402 
L 96.871518 58.863622 
L 96.816607 59.014688 
L 95.543627 62.408973 
L 94.209946 65.803259 
L 93.227436 68.197849 
L 92.837123 69.197545 
L 91.460647 72.59183 
L 90.0121 75.986116 
L 89.583355 76.951758 
L 88.557751 79.380402 
L 87.052024 82.774688 
L 85.939273 85.159814 
L 85.492333 86.168973 
L 83.920953 89.563259 
L 82.295191 92.870849 
L 82.254885 92.957545 
L 80.609943 96.35183 
L 78.854188 99.746116 
L 78.65111 100.121244 
L 77.113587 103.140402 
L 75.263766 106.534688 
L 75.007028 106.983009 
L 73.438078 109.928973 
L 71.493707 113.323259 
L 71.362946 113.54009 
L 69.615814 116.717545 
L 67.718865 119.905516 
L 67.610611 120.11183 
L 65.727385 123.506116 
L 64.074783 126.248802 
L 63.745349 126.900402 
L 61.916683 130.294688 
L 60.430702 132.826397 
L 60.033774 133.688973 
L 58.360204 137.083259 
L 56.78662 139.985171 
L 56.592733 140.477545 
L 55.160301 143.87183 
L 53.56478 147.266116 
L 53.142538 148.093708 
L 52.112926 150.660402 
L 50.514768 154.054688 
L 49.498457 155.892063 
L 48.124346 154.054688 
L 45.854375 150.976163 
L 45.854375 154.054688 
L 45.854375 157.448973 
L 45.854375 157.830365 
L 48.174979 160.843259 
z
" clip-path="url(#p38695d9a2f)" style="fill: #a4c0b1"/>
    <path d="M 49.498457 155.892063 
L 50.514768 154.054688 
L 52.112926 150.660402 
L 53.142538 148.093708 
L 53.56478 147.266116 
L 55.160301 143.87183 
L 56.592733 140.477545 
L 56.78662 139.985171 
L 58.360204 137.083259 
L 60.033774 133.688973 
L 60.430702 132.826397 
L 61.916683 130.294688 
L 63.745349 126.900402 
L 64.074783 126.248802 
L 65.727385 123.506116 
L 67.610611 120.11183 
L 67.718865 119.905516 
L 69.615814 116.717545 
L 71.362946 113.54009 
L 71.493707 113.323259 
L 73.438078 109.928973 
L 75.007028 106.983009 
L 75.263766 106.534688 
L 77.113587 103.140402 
L 78.65111 100.121244 
L 78.854188 99.746116 
L 80.609943 96.35183 
L 82.254885 92.957545 
L 82.295191 92.870849 
L 83.920953 89.563259 
L 85.492333 86.168973 
L 85.939273 85.159814 
L 87.052024 82.774688 
L 88.557751 79.380402 
L 89.583355 76.951758 
L 90.0121 75.986116 
L 91.460647 72.59183 
L 92.837123 69.197545 
L 93.227436 68.197849 
L 94.209946 65.803259 
L 95.543627 62.408973 
L 96.816607 59.014688 
L 96.871518 58.863622 
L 98.110168 55.620402 
L 99.351278 52.226116 
L 100.515599 48.903314 
L 100.541907 48.83183 
L 101.75595 45.437545 
L 102.921538 42.043259 
L 104.04156 38.648973 
L 104.159681 38.280871 
L 105.179933 35.254688 
L 106.283062 31.860402 
L 107.346087 28.466116 
L 107.803763 26.960162 
L 108.40664 25.07183 
L 109.45775 21.677545 
L 110.472949 18.283259 
L 111.447844 14.911888 
L 111.454805 14.888973 
L 112.462118 11.494688 
L 111.447844 11.494688 
L 107.803763 11.494688 
L 104.159681 11.494688 
L 101.121931 11.494688 
L 100.515599 13.680611 
L 100.197318 14.888973 
L 99.278647 18.283259 
L 98.328343 21.677545 
L 97.344437 25.07183 
L 96.871518 26.655411 
L 96.358274 28.466116 
L 95.365559 31.860402 
L 94.335396 35.254688 
L 93.265242 38.648973 
L 93.227436 38.765656 
L 92.220051 42.043259 
L 91.134828 45.437545 
L 90.004291 48.83183 
L 89.583355 50.053971 
L 88.874588 52.226116 
L 87.723824 55.620402 
L 86.520946 59.014688 
L 85.939273 60.595389 
L 85.308367 62.408973 
L 84.07946 65.803259 
L 82.789755 69.197545 
L 82.295191 70.448993 
L 81.497571 72.59183 
L 80.175761 75.986116 
L 78.782058 79.380402 
L 78.65111 79.687499 
L 77.419006 82.774688 
L 75.98815 86.168973 
L 75.007028 88.379857 
L 74.521159 89.563259 
L 73.060306 92.957545 
L 71.505161 96.35183 
L 71.362946 96.648923 
L 70.016584 99.746116 
L 68.442424 103.140402 
L 67.718865 104.616701 
L 66.891298 106.534688 
L 65.336019 109.928973 
L 64.074783 112.502524 
L 63.736961 113.323259 
L 62.261421 116.717545 
L 60.667132 120.11183 
L 60.430702 120.588025 
L 59.291091 123.506116 
L 57.860719 126.900402 
L 56.78662 129.264649 
L 56.445089 130.294688 
L 55.246472 133.688973 
L 53.937824 137.083259 
L 53.142538 138.989259 
L 52.682244 140.477545 
L 51.523022 143.87183 
L 50.188884 147.266116 
L 49.498457 148.818891 
L 48.369989 147.266116 
L 45.854375 143.895049 
L 45.854375 147.266116 
L 45.854375 150.660402 
L 45.854375 150.976163 
L 48.124346 154.054688 
z
" clip-path="url(#p38695d9a2f)" style="fill: #b5ccbf"/>
    <path d="M 49.498457 148.818891 
L 50.188884 147.266116 
L 51.523022 143.87183 
L 52.682244 140.477545 
L 53.142538 138.989259 
L 53.937824 137.083259 
L 55.246472 133.688973 
L 56.445089 130.294688 
L 56.78662 129.264649 
L 57.860719 126.900402 
L 59.291091 123.506116 
L 60.430702 120.588025 
L 60.667132 120.11183 
L 62.261421 116.717545 
L 63.736961 113.323259 
L 64.074783 112.502524 
L 65.336019 109.928973 
L 66.891298 106.534688 
L 67.718865 104.616701 
L 68.442424 103.140402 
L 70.016584 99.746116 
L 71.362946 96.648923 
L 71.505161 96.35183 
L 73.060306 92.957545 
L 74.521159 89.563259 
L 75.007028 88.379857 
L 75.98815 86.168973 
L 77.419006 82.774688 
L 78.65111 79.687499 
L 78.782058 79.380402 
L 80.175761 75.986116 
L 81.497571 72.59183 
L 82.295191 70.448993 
L 82.789755 69.197545 
L 84.07946 65.803259 
L 85.308367 62.408973 
L 85.939273 60.595389 
L 86.520946 59.014688 
L 87.723824 55.620402 
L 88.874588 52.226116 
L 89.583355 50.053971 
L 90.004291 48.83183 
L 91.134828 45.437545 
L 92.220051 42.043259 
L 93.227436 38.765656 
L 93.265242 38.648973 
L 94.335396 35.254688 
L 95.365559 31.860402 
L 96.358274 28.466116 
L 96.871518 26.655411 
L 97.344437 25.07183 
L 98.328343 21.677545 
L 99.278647 18.283259 
L 100.197318 14.888973 
L 100.515599 13.680611 
L 101.121931 11.494688 
L 100.515599 11.494688 
L 96.871518 11.494688 
L 93.227436 11.494688 
L 91.615416 11.494688 
L 90.750036 14.888973 
L 89.855205 18.283259 
L 89.583355 19.286703 
L 88.971295 21.677545 
L 88.074169 25.07183 
L 87.144479 28.466116 
L 86.180286 31.860402 
L 85.939273 32.684507 
L 85.230713 35.254688 
L 84.261203 38.648973 
L 83.25301 42.043259 
L 82.295191 45.144029 
L 82.210085 45.437545 
L 81.196017 48.83183 
L 80.138221 52.226116 
L 79.033558 55.620402 
L 78.65111 56.754791 
L 77.940509 59.014688 
L 76.828558 62.408973 
L 75.66302 65.803259 
L 75.007028 67.636458 
L 74.491764 69.197545 
L 73.324247 72.59183 
L 72.095388 75.986116 
L 71.362946 77.919564 
L 70.861662 79.380402 
L 69.64437 82.774688 
L 68.357297 86.168973 
L 67.718865 87.774642 
L 67.093151 89.563259 
L 65.845582 92.957545 
L 64.520233 96.35183 
L 64.074783 97.438989 
L 63.279301 99.746116 
L 62.041663 103.140402 
L 60.720765 106.534688 
L 60.430702 107.244215 
L 59.562853 109.928973 
L 58.395968 113.323259 
L 57.145309 116.717545 
L 56.78662 117.639448 
L 56.080326 120.11183 
L 55.04678 123.506116 
L 53.933834 126.900402 
L 53.142538 129.151548 
L 52.853056 130.294688 
L 51.928708 133.688973 
L 50.90368 137.083259 
L 49.75289 140.477545 
L 49.498457 141.163687 
L 48.985502 140.477545 
L 46.311227 137.083259 
L 45.854375 136.54129 
L 45.854375 137.083259 
L 45.854375 140.477545 
L 45.854375 143.87183 
L 45.854375 143.895049 
L 48.369989 147.266116 
z
" clip-path="url(#p38695d9a2f)" style="fill: #c6d7cd"/>
    <path d="M 49.498457 141.163687 
L 49.75289 140.477545 
L 50.90368 137.083259 
L 51.928708 133.688973 
L 52.853056 130.294688 
L 53.142538 129.151548 
L 53.933834 126.900402 
L 55.04678 123.506116 
L 56.080326 120.11183 
L 56.78662 117.639448 
L 57.145309 116.717545 
L 58.395968 113.323259 
L 59.562853 109.928973 
L 60.430702 107.244215 
L 60.720765 106.534688 
L 62.041663 103.140402 
L 63.279301 99.746116 
L 64.074783 97.438989 
L 64.520233 96.35183 
L 65.845582 92.957545 
L 67.093151 89.563259 
L 67.718865 87.774642 
L 68.357297 86.168973 
L 69.64437 82.774688 
L 70.861662 79.380402 
L 71.362946 77.919564 
L 72.095388 75.986116 
L 73.324247 72.59183 
L 74.491764 69.197545 
L 75.007028 67.636458 
L 75.66302 65.803259 
L 76.828558 62.408973 
L 77.940509 59.014688 
L 78.65111 56.754791 
L 79.033558 55.620402 
L 80.138221 52.226116 
L 81.196017 48.83183 
L 82.210085 45.437545 
L 82.295191 45.144029 
L 83.25301 42.043259 
L 84.261203 38.648973 
L 85.230713 35.254688 
L 85.939273 32.684507 
L 86.180286 31.860402 
L 87.144479 28.466116 
L 88.074169 25.07183 
L 88.971295 21.677545 
L 89.583355 19.286703 
L 89.855205 18.283259 
L 90.750036 14.888973 
L 91.615416 11.494688 
L 89.583355 11.494688 
L 85.939273 11.494688 
L 83.477508 11.494688 
L 82.651981 14.888973 
L 82.295191 16.314993 
L 81.833897 18.283259 
L 81.013866 21.677545 
L 80.164541 25.07183 
L 79.284155 28.466116 
L 78.65111 30.826379 
L 78.393068 31.860402 
L 77.520039 35.254688 
L 76.612904 38.648973 
L 75.669359 42.043259 
L 75.007028 44.340613 
L 74.715929 45.437545 
L 73.784868 48.83183 
L 72.81375 52.226116 
L 71.799611 55.620402 
L 71.362946 57.029483 
L 70.806391 59.014688 
L 69.816323 62.408973 
L 68.779178 65.803259 
L 67.718865 69.11247 
L 67.694873 69.197545 
L 66.704412 72.59183 
L 65.663714 75.986116 
L 64.568343 79.380402 
L 64.074783 80.845123 
L 63.526042 82.774688 
L 62.515872 86.168973 
L 61.449593 89.563259 
L 60.430702 92.634941 
L 60.345509 92.957545 
L 59.413029 96.35183 
L 58.426734 99.746116 
L 57.380892 103.140402 
L 56.78662 104.97125 
L 56.41084 106.534688 
L 55.554261 109.928973 
L 54.644164 113.323259 
L 53.673987 116.717545 
L 53.142538 118.473849 
L 52.789865 120.11183 
L 52.012165 123.506116 
L 51.169224 126.900402 
L 50.248266 130.294688 
L 49.498457 132.823179 
L 47.2563 130.294688 
L 45.854375 128.885962 
L 45.854375 130.294688 
L 45.854375 133.688973 
L 45.854375 136.54129 
L 46.311227 137.083259 
L 48.985502 140.477545 
z
" clip-path="url(#p38695d9a2f)" style="fill: #d5e2da"/>
    <path d="M 49.498457 132.823179 
L 50.248266 130.294688 
L 51.169224 126.900402 
L 52.012165 123.506116 
L 52.789865 120.11183 
L 53.142538 118.473849 
L 53.673987 116.717545 
L 54.644164 113.323259 
L 55.554261 109.928973 
L 56.41084 106.534688 
L 56.78662 104.97125 
L 57.380892 103.140402 
L 58.426734 99.746116 
L 59.413029 96.35183 
L 60.345509 92.957545 
L 60.430702 92.634941 
L 61.449593 89.563259 
L 62.515872 86.168973 
L 63.526042 82.774688 
L 64.074783 80.845123 
L 64.568343 79.380402 
L 65.663714 75.986116 
L 66.704412 72.59183 
L 67.694873 69.197545 
L 67.718865 69.11247 
L 68.779178 65.803259 
L 69.816323 62.408973 
L 70.806391 59.014688 
L 71.362946 57.029483 
L 71.799611 55.620402 
L 72.81375 52.226116 
L 73.784868 48.83183 
L 74.715929 45.437545 
L 75.007028 44.340613 
L 75.669359 42.043259 
L 76.612904 38.648973 
L 77.520039 35.254688 
L 78.393068 31.860402 
L 78.65111 30.826379 
L 79.284155 28.466116 
L 80.164541 25.07183 
L 81.013866 21.677545 
L 81.833897 18.283259 
L 82.295191 16.314993 
L 82.651981 14.888973 
L 83.477508 11.494688 
L 82.295191 11.494688 
L 78.65111 11.494688 
L 76.490764 11.494688 
L 75.726094 14.888973 
L 75.007028 17.977533 
L 74.941602 18.283259 
L 74.19599 21.677545 
L 73.423735 25.07183 
L 72.623311 28.466116 
L 71.792975 31.860402 
L 71.362946 33.562338 
L 70.97633 35.254688 
L 70.175091 38.648973 
L 69.34214 42.043259 
L 68.475286 45.437545 
L 67.718865 48.286035 
L 67.591182 48.83183 
L 66.771877 52.226116 
L 65.917445 55.620402 
L 65.025381 59.014688 
L 64.092773 62.408973 
L 64.074783 62.472369 
L 63.274596 65.803259 
L 62.422043 69.197545 
L 61.529067 72.59183 
L 60.592437 75.986116 
L 60.430702 76.550975 
L 59.782267 79.380402 
L 58.96858 82.774688 
L 58.114078 86.168973 
L 57.21509 89.563259 
L 56.78662 91.111171 
L 56.404961 92.957545 
L 55.672341 96.35183 
L 54.901154 99.746116 
L 54.087383 103.140402 
L 53.226464 106.534688 
L 53.142538 106.851636 
L 52.564921 109.928973 
L 51.888843 113.323259 
L 51.166889 116.717545 
L 50.391719 120.11183 
L 49.554261 123.506116 
L 49.498457 123.7194 
L 49.257581 123.506116 
L 45.854375 120.89839 
L 45.854375 123.506116 
L 45.854375 126.900402 
L 45.854375 128.885962 
L 47.2563 130.294688 
z
" clip-path="url(#p38695d9a2f)" style="fill: #e6ede9"/>
    <path d="M 49.498457 123.7194 
L 49.554261 123.506116 
L 50.391719 120.11183 
L 51.166889 116.717545 
L 51.888843 113.323259 
L 52.564921 109.928973 
L 53.142538 106.851636 
L 53.226464 106.534688 
L 54.087383 103.140402 
L 54.901154 99.746116 
L 55.672341 96.35183 
L 56.404961 92.957545 
L 56.78662 91.111171 
L 57.21509 89.563259 
L 58.114078 86.168973 
L 58.96858 82.774688 
L 59.782267 79.380402 
L 60.430702 76.550975 
L 60.592437 75.986116 
L 61.529067 72.59183 
L 62.422043 69.197545 
L 63.274596 65.803259 
L 64.074783 62.472369 
L 64.092773 62.408973 
L 65.025381 59.014688 
L 65.917445 55.620402 
L 66.771877 52.226116 
L 67.591182 48.83183 
L 67.718865 48.286035 
L 68.475286 45.437545 
L 69.34214 42.043259 
L 70.175091 38.648973 
L 70.97633 35.254688 
L 71.362946 33.562338 
L 71.792975 31.860402 
L 72.623311 28.466116 
L 73.423735 25.07183 
L 74.19599 21.677545 
L 74.941602 18.283259 
L 75.007028 17.977533 
L 75.726094 14.888973 
L 76.490764 11.494688 
L 75.007028 11.494688 
L 71.362946 11.494688 
L 70.509354 11.494688 
L 69.838428 14.888973 
L 69.144665 18.283259 
L 68.426769 21.677545 
L 67.718865 24.911053 
L 67.687815 25.07183 
L 67.014762 28.466116 
L 66.317374 31.860402 
L 65.594104 35.254688 
L 64.843348 38.648973 
L 64.074783 41.993736 
L 64.065109 42.043259 
L 63.383282 45.437545 
L 62.674839 48.83183 
L 61.937936 52.226116 
L 61.170628 55.620402 
L 60.430702 58.762696 
L 60.38285 59.014688 
L 59.718449 62.408973 
L 59.026423 65.803259 
L 58.304721 69.197545 
L 57.550988 72.59183 
L 56.78662 75.884315 
L 56.768793 75.986116 
L 56.155211 79.380402 
L 55.514745 82.774688 
L 54.845045 86.168973 
L 54.143597 89.563259 
L 53.407437 92.957545 
L 53.142538 94.129511 
L 52.78584 96.35183 
L 52.216004 99.746116 
L 51.615668 103.140402 
L 50.981052 106.534688 
L 50.307664 109.928973 
L 49.589995 113.323259 
L 49.498457 113.734717 
L 48.395917 113.323259 
L 45.854375 112.53278 
L 45.854375 113.323259 
L 45.854375 116.717545 
L 45.854375 120.11183 
L 45.854375 120.89839 
L 49.257581 123.506116 
z
" clip-path="url(#p38695d9a2f)" style="fill: #eee9ef"/>
    <path d="M 49.498457 113.734717 
L 49.589995 113.323259 
L 50.307664 109.928973 
L 50.981052 106.534688 
L 51.615668 103.140402 
L 52.216004 99.746116 
L 52.78584 96.35183 
L 53.142538 94.129511 
L 53.407437 92.957545 
L 54.143597 89.563259 
L 54.845045 86.168973 
L 55.514745 82.774688 
L 56.155211 79.380402 
L 56.768793 75.986116 
L 56.78662 75.884315 
L 57.550988 72.59183 
L 58.304721 69.197545 
L 59.026423 65.803259 
L 59.718449 62.408973 
L 60.38285 59.014688 
L 60.430702 58.762696 
L 61.170628 55.620402 
L 61.937936 52.226116 
L 62.674839 48.83183 
L 63.383282 45.437545 
L 64.065109 42.043259 
L 64.074783 41.993736 
L 64.843348 38.648973 
L 65.594104 35.254688 
L 66.317374 31.860402 
L 67.014762 28.466116 
L 67.687815 25.07183 
L 67.718865 24.911053 
L 68.426769 21.677545 
L 69.144665 18.283259 
L 69.838428 14.888973 
L 70.509354 11.494688 
L 67.718865 11.494688 
L 65.493637 11.494688 
L 64.867696 14.888973 
L 64.220791 18.283259 
L 64.074783 19.02895 
L 63.632417 21.677545 
L 63.047619 25.07183 
L 62.442894 28.466116 
L 61.817024 31.860402 
L 61.168781 35.254688 
L 60.496787 38.648973 
L 60.430702 38.973453 
L 59.923608 42.043259 
L 59.343386 45.437545 
L 58.74196 48.83183 
L 58.117923 52.226116 
L 57.469751 55.620402 
L 56.795775 59.014688 
L 56.78662 59.05943 
L 56.265757 62.408973 
L 55.71812 65.803259 
L 55.14918 69.197545 
L 54.557338 72.59183 
L 53.940813 75.986116 
L 53.297654 79.380402 
L 53.142538 80.170516 
L 52.77751 82.774688 
L 52.28265 86.168973 
L 51.765861 89.563259 
L 51.224917 92.957545 
L 50.657246 96.35183 
L 50.059864 99.746116 
L 49.498457 102.772321 
L 48.340374 103.140402 
L 45.854375 103.749128 
L 45.854375 106.534688 
L 45.854375 109.928973 
L 45.854375 112.53278 
L 48.395917 113.323259 
z
" clip-path="url(#p38695d9a2f)" style="fill: #e7dae9"/>
    <path d="M 48.340374 103.140402 
L 49.498457 102.772321 
L 50.059864 99.746116 
L 50.657246 96.35183 
L 51.224917 92.957545 
L 51.765861 89.563259 
L 52.28265 86.168973 
L 52.77751 82.774688 
L 53.142538 80.170516 
L 53.297654 79.380402 
L 53.940813 75.986116 
L 54.557338 72.59183 
L 55.14918 69.197545 
L 55.71812 65.803259 
L 56.265757 62.408973 
L 56.78662 59.05943 
L 56.795775 59.014688 
L 57.469751 55.620402 
L 58.117923 52.226116 
L 58.74196 48.83183 
L 59.343386 45.437545 
L 59.923608 42.043259 
L 60.430702 38.973453 
L 60.496787 38.648973 
L 61.168781 35.254688 
L 61.817024 31.860402 
L 62.442894 28.466116 
L 63.047619 25.07183 
L 63.632417 21.677545 
L 64.074783 19.02895 
L 64.220791 18.283259 
L 64.867696 14.888973 
L 65.493637 11.494688 
L 64.074783 11.494688 
L 61.319746 11.494688 
L 60.759789 14.888973 
L 60.430702 16.82761 
L 60.228826 18.283259 
L 59.745444 21.677545 
L 59.246988 25.07183 
L 58.732628 28.466116 
L 58.201423 31.860402 
L 57.652422 35.254688 
L 57.084542 38.648973 
L 56.78662 40.375964 
L 56.565767 42.043259 
L 56.103121 45.437545 
L 55.625173 48.83183 
L 55.130974 52.226116 
L 54.619453 55.620402 
L 54.089456 59.014688 
L 53.539673 62.408973 
L 53.142538 64.776277 
L 53.018452 65.803259 
L 52.595758 69.197545 
L 52.157628 72.59183 
L 51.70281 75.986116 
L 51.229872 79.380402 
L 50.737252 82.774688 
L 50.223079 86.168973 
L 49.685264 89.563259 
L 49.498457 90.696039 
L 47.582089 92.957545 
L 45.854375 94.492478 
L 45.854375 96.35183 
L 45.854375 99.746116 
L 45.854375 103.140402 
L 45.854375 103.749128 
z
" clip-path="url(#p38695d9a2f)" style="fill: #dfcae3"/>
    <path d="M 47.582089 92.957545 
L 49.498457 90.696039 
L 49.685264 89.563259 
L 50.223079 86.168973 
L 50.737252 82.774688 
L 51.229872 79.380402 
L 51.70281 75.986116 
L 52.157628 72.59183 
L 52.595758 69.197545 
L 53.018452 65.803259 
L 53.142538 64.776277 
L 53.539673 62.408973 
L 54.089456 59.014688 
L 54.619453 55.620402 
L 55.130974 52.226116 
L 55.625173 48.83183 
L 56.103121 45.437545 
L 56.565767 42.043259 
L 56.78662 40.375964 
L 57.084542 38.648973 
L 57.652422 35.254688 
L 58.201423 31.860402 
L 58.732628 28.466116 
L 59.246988 25.07183 
L 59.745444 21.677545 
L 60.228826 18.283259 
L 60.430702 16.82761 
L 60.759789 14.888973 
L 61.319746 11.494688 
L 60.430702 11.494688 
L 57.936315 11.494688 
L 57.461233 14.888973 
L 56.971787 18.283259 
L 56.78662 19.533865 
L 56.540635 21.677545 
L 56.140873 25.07183 
L 55.729568 28.466116 
L 55.306104 31.860402 
L 54.869768 35.254688 
L 54.419869 38.648973 
L 53.955578 42.043259 
L 53.476046 45.437545 
L 53.142538 47.726289 
L 53.025433 48.83183 
L 52.65613 52.226116 
L 52.275268 55.620402 
L 51.882047 59.014688 
L 51.475603 62.408973 
L 51.055008 65.803259 
L 50.619166 69.197545 
L 50.166888 72.59183 
L 49.696842 75.986116 
L 49.498457 77.368679 
L 48.710876 79.380402 
L 47.0509 82.774688 
L 45.854375 84.711152 
L 45.854375 86.168973 
L 45.854375 89.563259 
L 45.854375 92.957545 
L 45.854375 94.492478 
z
" clip-path="url(#p38695d9a2f)" style="fill: #d9bbde"/>
    <path d="M 47.0509 82.774688 
L 48.710876 79.380402 
L 49.498457 77.368679 
L 49.696842 75.986116 
L 50.166888 72.59183 
L 50.619166 69.197545 
L 51.055008 65.803259 
L 51.475603 62.408973 
L 51.882047 59.014688 
L 52.275268 55.620402 
L 52.65613 52.226116 
L 53.025433 48.83183 
L 53.142538 47.726289 
L 53.476046 45.437545 
L 53.955578 42.043259 
L 54.419869 38.648973 
L 54.869768 35.254688 
L 55.306104 31.860402 
L 55.729568 28.466116 
L 56.140873 25.07183 
L 56.540635 21.677545 
L 56.78662 19.533865 
L 56.971787 18.283259 
L 57.461233 14.888973 
L 57.936315 11.494688 
L 56.78662 11.494688 
L 55.186994 11.494688 
L 54.807398 14.888973 
L 54.417378 18.283259 
L 54.01641 21.677545 
L 53.603938 25.07183 
L 53.179321 28.466116 
L 53.142538 28.752976 
L 52.850273 31.860402 
L 52.522536 35.254688 
L 52.18578 38.648973 
L 51.839444 42.043259 
L 51.48298 45.437545 
L 51.115739 48.83183 
L 50.737071 52.226116 
L 50.346197 55.620402 
L 49.942283 59.014688 
L 49.52442 62.408973 
L 49.498457 62.613774 
L 48.730539 65.803259 
L 47.755392 69.197545 
L 46.568727 72.59183 
L 45.854375 74.327519 
L 45.854375 75.986116 
L 45.854375 79.380402 
L 45.854375 82.774688 
L 45.854375 84.711152 
z
" clip-path="url(#p38695d9a2f)" style="fill: #d1abd8"/>
    <path d="M 46.568727 72.59183 
L 47.755392 69.197545 
L 48.730539 65.803259 
L 49.498457 62.613774 
L 49.52442 62.408973 
L 49.942283 59.014688 
L 50.346197 55.620402 
L 50.737071 52.226116 
L 51.115739 48.83183 
L 51.48298 45.437545 
L 51.839444 42.043259 
L 52.18578 38.648973 
L 52.522536 35.254688 
L 52.850273 31.860402 
L 53.142538 28.752976 
L 53.179321 28.466116 
L 53.603938 25.07183 
L 54.01641 21.677545 
L 54.417378 18.283259 
L 54.807398 14.888973 
L 55.186994 11.494688 
L 53.142538 11.494688 
L 52.814389 11.494688 
L 52.527197 14.888973 
L 52.233028 18.283259 
L 51.931576 21.677545 
L 51.622474 25.07183 
L 51.305294 28.466116 
L 50.979644 31.860402 
L 50.645013 35.254688 
L 50.300921 38.648973 
L 49.946823 42.043259 
L 49.582105 45.437545 
L 49.498457 46.195266 
L 49.086959 48.83183 
L 48.492342 52.226116 
L 47.811717 55.620402 
L 47.02548 59.014688 
L 46.107833 62.408973 
L 45.854375 63.250267 
L 45.854375 65.803259 
L 45.854375 69.197545 
L 45.854375 72.59183 
L 45.854375 74.327519 
z
" clip-path="url(#p38695d9a2f)" style="fill: #c99bd1"/>
    <path d="M 46.107833 62.408973 
L 47.02548 59.014688 
L 47.811717 55.620402 
L 48.492342 52.226116 
L 49.086959 48.83183 
L 49.498457 46.195266 
L 49.582105 45.437545 
L 49.946823 42.043259 
L 50.300921 38.648973 
L 50.645013 35.254688 
L 50.979644 31.860402 
L 51.305294 28.466116 
L 51.622474 25.07183 
L 51.931576 21.677545 
L 52.233028 18.283259 
L 52.527197 14.888973 
L 52.814389 11.494688 
L 50.977835 11.494688 
L 50.685719 14.888973 
L 50.386349 18.283259 
L 50.079404 21.677545 
L 49.764492 25.07183 
L 49.498457 27.866291 
L 49.434466 28.466116 
L 49.049326 31.860402 
L 48.626022 35.254688 
L 48.158119 38.648973 
L 47.637839 42.043259 
L 47.055608 45.437545 
L 46.399533 48.83183 
L 45.854375 51.352234 
L 45.854375 52.226116 
L 45.854375 55.620402 
L 45.854375 59.014688 
L 45.854375 62.408973 
L 45.854375 63.250267 
z
" clip-path="url(#p38695d9a2f)" style="fill: #c28bcb"/>
    <path d="M 46.399533 48.83183 
L 47.055608 45.437545 
L 47.637839 42.043259 
L 48.158119 38.648973 
L 48.626022 35.254688 
L 49.049326 31.860402 
L 49.434466 28.466116 
L 49.498457 27.866291 
L 49.764492 25.07183 
L 50.079404 21.677545 
L 50.386349 18.283259 
L 50.685719 14.888973 
L 50.977835 11.494688 
L 49.498457 11.494688 
L 49.148406 11.494688 
L 48.8426 14.888973 
L 48.513634 18.283259 
L 48.158274 21.677545 
L 47.772705 25.07183 
L 47.352405 28.466116 
L 46.891992 31.860402 
L 46.385134 35.254688 
L 45.854375 38.472647 
L 45.854375 38.648973 
L 45.854375 42.043259 
L 45.854375 45.437545 
L 45.854375 48.83183 
L 45.854375 51.352234 
z
" clip-path="url(#p38695d9a2f)" style="fill: #bb7dc6"/>
    <path d="M 46.385134 35.254688 
L 46.891992 31.860402 
L 47.352405 28.466116 
L 47.772705 25.07183 
L 48.158274 21.677545 
L 48.513634 18.283259 
L 48.8426 14.888973 
L 49.148406 11.494688 
L 47.348489 11.494688 
L 46.9965 14.888973 
L 46.616807 18.283259 
L 46.205632 21.677545 
L 45.854375 24.361933 
L 45.854375 25.07183 
L 45.854375 28.466116 
L 45.854375 31.860402 
L 45.854375 35.254688 
L 45.854375 38.472647 
z
" clip-path="url(#p38695d9a2f)" style="fill: #b46dc0"/>
    <path d="M 46.205632 21.677545 
L 46.616807 18.283259 
L 46.9965 14.888973 
L 47.348489 11.494688 
L 45.854375 11.494688 
L 45.854375 14.888973 
L 45.854375 18.283259 
L 45.854375 21.677545 
L 45.854375 24.361933 
z
" clip-path="url(#p38695d9a2f)" style="fill: #ac5db9"/>
   </g>
   <g id="matplotlib.axis_1">
    <g id="xtick_1">
     <g id="line2d_1">
      <defs>
       <path id="m2bd5e9ba67" d="M 0 0 
L 0 3.5 
" style="stroke: #000000; stroke-width: 0.8"/>
      </defs>
      <g>
       <use xlink:href="#m2bd5e9ba67" x="65.694375" y="177.814688" style="stroke: #000000; stroke-width: 0.8"/>
      </g>
     </g>
     <g id="text_1">
      <!-- 0.2 -->
      <g transform="translate(57.354375 193.404063) scale(0.12 -0.12)">
       <defs>
        <path id="ArialMT-30" d="M 266 2259 
Q 266 3072 433 3567 
Q 600 4063 929 4331 
Q 1259 4600 1759 4600 
Q 2128 4600 2406 4451 
Q 2684 4303 2865 4023 
Q 3047 3744 3150 3342 
Q 3253 2941 3253 2259 
Q 3253 1453 3087 958 
Q 2922 463 2592 192 
Q 2263 -78 1759 -78 
Q 1097 -78 719 397 
Q 266 969 266 2259 
z
M 844 2259 
Q 844 1131 1108 757 
Q 1372 384 1759 384 
Q 2147 384 2411 759 
Q 2675 1134 2675 2259 
Q 2675 3391 2411 3762 
Q 2147 4134 1753 4134 
Q 1366 4134 1134 3806 
Q 844 3388 844 2259 
z
" transform="scale(0.015625)"/>
        <path id="ArialMT-2e" d="M 581 0 
L 581 641 
L 1222 641 
L 1222 0 
L 581 0 
z
" transform="scale(0.015625)"/>
        <path id="ArialMT-32" d="M 3222 541 
L 3222 0 
L 194 0 
Q 188 203 259 391 
Q 375 700 629 1000 
Q 884 1300 1366 1694 
Q 2113 2306 2375 2664 
Q 2638 3022 2638 3341 
Q 2638 3675 2398 3904 
Q 2159 4134 1775 4134 
Q 1369 4134 1125 3890 
Q 881 3647 878 3216 
L 300 3275 
Q 359 3922 746 4261 
Q 1134 4600 1788 4600 
Q 2447 4600 2831 4234 
Q 3216 3869 3216 3328 
Q 3216 3053 3103 2787 
Q 2991 2522 2730 2228 
Q 2469 1934 1863 1422 
Q 1356 997 1212 845 
Q 1069 694 975 541 
L 3222 541 
z
" transform="scale(0.015625)"/>
       </defs>
       <use xlink:href="#ArialMT-30"/>
       <use xlink:href="#ArialMT-2e" x="55.615234"/>
       <use xlink:href="#ArialMT-32" x="83.398438"/>
      </g>
     </g>
    </g>
    <g id="xtick_2">
     <g id="line2d_2">
      <g>
       <use xlink:href="#m2bd5e9ba67" x="105.374375" y="177.814688" style="stroke: #000000; stroke-width: 0.8"/>
      </g>
     </g>
     <g id="text_2">
      <!-- 0.4 -->
      <g transform="translate(97.034375 193.404063) scale(0.12 -0.12)">
       <defs>
        <path id="ArialMT-34" d="M 2069 0 
L 2069 1097 
L 81 1097 
L 81 1613 
L 2172 4581 
L 2631 4581 
L 2631 1613 
L 3250 1613 
L 3250 1097 
L 2631 1097 
L 2631 0 
L 2069 0 
z
M 2069 1613 
L 2069 3678 
L 634 1613 
L 2069 1613 
z
" transform="scale(0.015625)"/>
       </defs>
       <use xlink:href="#ArialMT-30"/>
       <use xlink:href="#ArialMT-2e" x="55.615234"/>
       <use xlink:href="#ArialMT-34" x="83.398438"/>
      </g>
     </g>
    </g>
    <g id="xtick_3">
     <g id="line2d_3">
      <g>
       <use xlink:href="#m2bd5e9ba67" x="145.054375" y="177.814688" style="stroke: #000000; stroke-width: 0.8"/>
      </g>
     </g>
     <g id="text_3">
      <!-- 0.6 -->
      <g transform="translate(136.714375 193.404063) scale(0.12 -0.12)">
       <defs>
        <path id="ArialMT-36" d="M 3184 3459 
L 2625 3416 
Q 2550 3747 2413 3897 
Q 2184 4138 1850 4138 
Q 1581 4138 1378 3988 
Q 1113 3794 959 3422 
Q 806 3050 800 2363 
Q 1003 2672 1297 2822 
Q 1591 2972 1913 2972 
Q 2475 2972 2870 2558 
Q 3266 2144 3266 1488 
Q 3266 1056 3080 686 
Q 2894 316 2569 119 
Q 2244 -78 1831 -78 
Q 1128 -78 684 439 
Q 241 956 241 2144 
Q 241 3472 731 4075 
Q 1159 4600 1884 4600 
Q 2425 4600 2770 4297 
Q 3116 3994 3184 3459 
z
M 888 1484 
Q 888 1194 1011 928 
Q 1134 663 1356 523 
Q 1578 384 1822 384 
Q 2178 384 2434 671 
Q 2691 959 2691 1453 
Q 2691 1928 2437 2201 
Q 2184 2475 1800 2475 
Q 1419 2475 1153 2201 
Q 888 1928 888 1484 
z
" transform="scale(0.015625)"/>
       </defs>
       <use xlink:href="#ArialMT-30"/>
       <use xlink:href="#ArialMT-2e" x="55.615234"/>
       <use xlink:href="#ArialMT-36" x="83.398438"/>
      </g>
     </g>
    </g>
    <g id="xtick_4">
     <g id="line2d_4">
      <g>
       <use xlink:href="#m2bd5e9ba67" x="184.734375" y="177.814688" style="stroke: #000000; stroke-width: 0.8"/>
      </g>
     </g>
     <g id="text_4">
      <!-- 0.8 -->
      <g transform="translate(176.394375 193.404063) scale(0.12 -0.12)">
       <defs>
        <path id="ArialMT-38" d="M 1131 2484 
Q 781 2613 612 2850 
Q 444 3088 444 3419 
Q 444 3919 803 4259 
Q 1163 4600 1759 4600 
Q 2359 4600 2725 4251 
Q 3091 3903 3091 3403 
Q 3091 3084 2923 2848 
Q 2756 2613 2416 2484 
Q 2838 2347 3058 2040 
Q 3278 1734 3278 1309 
Q 3278 722 2862 322 
Q 2447 -78 1769 -78 
Q 1091 -78 675 323 
Q 259 725 259 1325 
Q 259 1772 486 2073 
Q 713 2375 1131 2484 
z
M 1019 3438 
Q 1019 3113 1228 2906 
Q 1438 2700 1772 2700 
Q 2097 2700 2305 2904 
Q 2513 3109 2513 3406 
Q 2513 3716 2298 3927 
Q 2084 4138 1766 4138 
Q 1444 4138 1231 3931 
Q 1019 3725 1019 3438 
z
M 838 1322 
Q 838 1081 952 856 
Q 1066 631 1291 507 
Q 1516 384 1775 384 
Q 2178 384 2440 643 
Q 2703 903 2703 1303 
Q 2703 1709 2433 1975 
Q 2163 2241 1756 2241 
Q 1359 2241 1098 1978 
Q 838 1716 838 1322 
z
" transform="scale(0.015625)"/>
       </defs>
       <use xlink:href="#ArialMT-30"/>
       <use xlink:href="#ArialMT-2e" x="55.615234"/>
       <use xlink:href="#ArialMT-38" x="83.398438"/>
      </g>
     </g>
    </g>
    <g id="xtick_5">
     <g id="line2d_5">
      <g>
       <use xlink:href="#m2bd5e9ba67" x="224.414375" y="177.814688" style="stroke: #000000; stroke-width: 0.8"/>
      </g>
     </g>
     <g id="text_5">
      <!-- 1.0 -->
      <g transform="translate(216.074375 193.404063) scale(0.12 -0.12)">
       <defs>
        <path id="ArialMT-31" d="M 2384 0 
L 1822 0 
L 1822 3584 
Q 1619 3391 1289 3197 
Q 959 3003 697 2906 
L 697 3450 
Q 1169 3672 1522 3987 
Q 1875 4303 2022 4600 
L 2384 4600 
L 2384 0 
z
" transform="scale(0.015625)"/>
       </defs>
       <use xlink:href="#ArialMT-31"/>
       <use xlink:href="#ArialMT-2e" x="55.615234"/>
       <use xlink:href="#ArialMT-30" x="83.398438"/>
      </g>
     </g>
    </g>
    <g id="text_6">
     <!-- Relative transcription rate NP -->
     <g transform="translate(57.10625 208.378438) scale(0.12 -0.12)">
      <defs>
       <path id="ArialMT-52" d="M 503 0 
L 503 4581 
L 2534 4581 
Q 3147 4581 3465 4457 
Q 3784 4334 3975 4021 
Q 4166 3709 4166 3331 
Q 4166 2844 3850 2509 
Q 3534 2175 2875 2084 
Q 3116 1969 3241 1856 
Q 3506 1613 3744 1247 
L 4541 0 
L 3778 0 
L 3172 953 
Q 2906 1366 2734 1584 
Q 2563 1803 2427 1890 
Q 2291 1978 2150 2013 
Q 2047 2034 1813 2034 
L 1109 2034 
L 1109 0 
L 503 0 
z
M 1109 2559 
L 2413 2559 
Q 2828 2559 3062 2645 
Q 3297 2731 3419 2920 
Q 3541 3109 3541 3331 
Q 3541 3656 3305 3865 
Q 3069 4075 2559 4075 
L 1109 4075 
L 1109 2559 
z
" transform="scale(0.015625)"/>
       <path id="ArialMT-65" d="M 2694 1069 
L 3275 997 
Q 3138 488 2766 206 
Q 2394 -75 1816 -75 
Q 1088 -75 661 373 
Q 234 822 234 1631 
Q 234 2469 665 2931 
Q 1097 3394 1784 3394 
Q 2450 3394 2872 2941 
Q 3294 2488 3294 1666 
Q 3294 1616 3291 1516 
L 816 1516 
Q 847 969 1125 678 
Q 1403 388 1819 388 
Q 2128 388 2347 550 
Q 2566 713 2694 1069 
z
M 847 1978 
L 2700 1978 
Q 2663 2397 2488 2606 
Q 2219 2931 1791 2931 
Q 1403 2931 1139 2672 
Q 875 2413 847 1978 
z
" transform="scale(0.015625)"/>
       <path id="ArialMT-6c" d="M 409 0 
L 409 4581 
L 972 4581 
L 972 0 
L 409 0 
z
" transform="scale(0.015625)"/>
       <path id="ArialMT-61" d="M 2588 409 
Q 2275 144 1986 34 
Q 1697 -75 1366 -75 
Q 819 -75 525 192 
Q 231 459 231 875 
Q 231 1119 342 1320 
Q 453 1522 633 1644 
Q 813 1766 1038 1828 
Q 1203 1872 1538 1913 
Q 2219 1994 2541 2106 
Q 2544 2222 2544 2253 
Q 2544 2597 2384 2738 
Q 2169 2928 1744 2928 
Q 1347 2928 1158 2789 
Q 969 2650 878 2297 
L 328 2372 
Q 403 2725 575 2942 
Q 747 3159 1072 3276 
Q 1397 3394 1825 3394 
Q 2250 3394 2515 3294 
Q 2781 3194 2906 3042 
Q 3031 2891 3081 2659 
Q 3109 2516 3109 2141 
L 3109 1391 
Q 3109 606 3145 398 
Q 3181 191 3288 0 
L 2700 0 
Q 2613 175 2588 409 
z
M 2541 1666 
Q 2234 1541 1622 1453 
Q 1275 1403 1131 1340 
Q 988 1278 909 1158 
Q 831 1038 831 891 
Q 831 666 1001 516 
Q 1172 366 1500 366 
Q 1825 366 2078 508 
Q 2331 650 2450 897 
Q 2541 1088 2541 1459 
L 2541 1666 
z
" transform="scale(0.015625)"/>
       <path id="ArialMT-74" d="M 1650 503 
L 1731 6 
Q 1494 -44 1306 -44 
Q 1000 -44 831 53 
Q 663 150 594 308 
Q 525 466 525 972 
L 525 2881 
L 113 2881 
L 113 3319 
L 525 3319 
L 525 4141 
L 1084 4478 
L 1084 3319 
L 1650 3319 
L 1650 2881 
L 1084 2881 
L 1084 941 
Q 1084 700 1114 631 
Q 1144 563 1211 522 
Q 1278 481 1403 481 
Q 1497 481 1650 503 
z
" transform="scale(0.015625)"/>
       <path id="ArialMT-69" d="M 425 3934 
L 425 4581 
L 988 4581 
L 988 3934 
L 425 3934 
z
M 425 0 
L 425 3319 
L 988 3319 
L 988 0 
L 425 0 
z
" transform="scale(0.015625)"/>
       <path id="ArialMT-76" d="M 1344 0 
L 81 3319 
L 675 3319 
L 1388 1331 
Q 1503 1009 1600 663 
Q 1675 925 1809 1294 
L 2547 3319 
L 3125 3319 
L 1869 0 
L 1344 0 
z
" transform="scale(0.015625)"/>
       <path id="ArialMT-20" transform="scale(0.015625)"/>
       <path id="ArialMT-72" d="M 416 0 
L 416 3319 
L 922 3319 
L 922 2816 
Q 1116 3169 1280 3281 
Q 1444 3394 1641 3394 
Q 1925 3394 2219 3213 
L 2025 2691 
Q 1819 2813 1613 2813 
Q 1428 2813 1281 2702 
Q 1134 2591 1072 2394 
Q 978 2094 978 1738 
L 978 0 
L 416 0 
z
" transform="scale(0.015625)"/>
       <path id="ArialMT-6e" d="M 422 0 
L 422 3319 
L 928 3319 
L 928 2847 
Q 1294 3394 1984 3394 
Q 2284 3394 2536 3286 
Q 2788 3178 2913 3003 
Q 3038 2828 3088 2588 
Q 3119 2431 3119 2041 
L 3119 0 
L 2556 0 
L 2556 2019 
Q 2556 2363 2490 2533 
Q 2425 2703 2258 2804 
Q 2091 2906 1866 2906 
Q 1506 2906 1245 2678 
Q 984 2450 984 1813 
L 984 0 
L 422 0 
z
" transform="scale(0.015625)"/>
       <path id="ArialMT-73" d="M 197 991 
L 753 1078 
Q 800 744 1014 566 
Q 1228 388 1613 388 
Q 2000 388 2187 545 
Q 2375 703 2375 916 
Q 2375 1106 2209 1216 
Q 2094 1291 1634 1406 
Q 1016 1563 777 1677 
Q 538 1791 414 1992 
Q 291 2194 291 2438 
Q 291 2659 392 2848 
Q 494 3038 669 3163 
Q 800 3259 1026 3326 
Q 1253 3394 1513 3394 
Q 1903 3394 2198 3281 
Q 2494 3169 2634 2976 
Q 2775 2784 2828 2463 
L 2278 2388 
Q 2241 2644 2061 2787 
Q 1881 2931 1553 2931 
Q 1166 2931 1000 2803 
Q 834 2675 834 2503 
Q 834 2394 903 2306 
Q 972 2216 1119 2156 
Q 1203 2125 1616 2013 
Q 2213 1853 2448 1751 
Q 2684 1650 2818 1456 
Q 2953 1263 2953 975 
Q 2953 694 2789 445 
Q 2625 197 2315 61 
Q 2006 -75 1616 -75 
Q 969 -75 630 194 
Q 291 463 197 991 
z
" transform="scale(0.015625)"/>
       <path id="ArialMT-63" d="M 2588 1216 
L 3141 1144 
Q 3050 572 2676 248 
Q 2303 -75 1759 -75 
Q 1078 -75 664 370 
Q 250 816 250 1647 
Q 250 2184 428 2587 
Q 606 2991 970 3192 
Q 1334 3394 1763 3394 
Q 2303 3394 2647 3120 
Q 2991 2847 3088 2344 
L 2541 2259 
Q 2463 2594 2264 2762 
Q 2066 2931 1784 2931 
Q 1359 2931 1093 2626 
Q 828 2322 828 1663 
Q 828 994 1084 691 
Q 1341 388 1753 388 
Q 2084 388 2306 591 
Q 2528 794 2588 1216 
z
" transform="scale(0.015625)"/>
       <path id="ArialMT-70" d="M 422 -1272 
L 422 3319 
L 934 3319 
L 934 2888 
Q 1116 3141 1344 3267 
Q 1572 3394 1897 3394 
Q 2322 3394 2647 3175 
Q 2972 2956 3137 2557 
Q 3303 2159 3303 1684 
Q 3303 1175 3120 767 
Q 2938 359 2589 142 
Q 2241 -75 1856 -75 
Q 1575 -75 1351 44 
Q 1128 163 984 344 
L 984 -1272 
L 422 -1272 
z
M 931 1641 
Q 931 1000 1190 694 
Q 1450 388 1819 388 
Q 2194 388 2461 705 
Q 2728 1022 2728 1688 
Q 2728 2322 2467 2637 
Q 2206 2953 1844 2953 
Q 1484 2953 1207 2617 
Q 931 2281 931 1641 
z
" transform="scale(0.015625)"/>
       <path id="ArialMT-6f" d="M 213 1659 
Q 213 2581 725 3025 
Q 1153 3394 1769 3394 
Q 2453 3394 2887 2945 
Q 3322 2497 3322 1706 
Q 3322 1066 3130 698 
Q 2938 331 2570 128 
Q 2203 -75 1769 -75 
Q 1072 -75 642 372 
Q 213 819 213 1659 
z
M 791 1659 
Q 791 1022 1069 705 
Q 1347 388 1769 388 
Q 2188 388 2466 706 
Q 2744 1025 2744 1678 
Q 2744 2294 2464 2611 
Q 2184 2928 1769 2928 
Q 1347 2928 1069 2612 
Q 791 2297 791 1659 
z
" transform="scale(0.015625)"/>
       <path id="ArialMT-4e" d="M 488 0 
L 488 4581 
L 1109 4581 
L 3516 984 
L 3516 4581 
L 4097 4581 
L 4097 0 
L 3475 0 
L 1069 3600 
L 1069 0 
L 488 0 
z
" transform="scale(0.015625)"/>
       <path id="ArialMT-50" d="M 494 0 
L 494 4581 
L 2222 4581 
Q 2678 4581 2919 4538 
Q 3256 4481 3484 4323 
Q 3713 4166 3852 3881 
Q 3991 3597 3991 3256 
Q 3991 2672 3619 2267 
Q 3247 1863 2275 1863 
L 1100 1863 
L 1100 0 
L 494 0 
z
M 1100 2403 
L 2284 2403 
Q 2872 2403 3119 2622 
Q 3366 2841 3366 3238 
Q 3366 3525 3220 3729 
Q 3075 3934 2838 4000 
Q 2684 4041 2272 4041 
L 1100 4041 
L 1100 2403 
z
" transform="scale(0.015625)"/>
      </defs>
      <use xlink:href="#ArialMT-52"/>
      <use xlink:href="#ArialMT-65" x="72.216797"/>
      <use xlink:href="#ArialMT-6c" x="127.832031"/>
      <use xlink:href="#ArialMT-61" x="150.048828"/>
      <use xlink:href="#ArialMT-74" x="205.664062"/>
      <use xlink:href="#ArialMT-69" x="233.447266"/>
      <use xlink:href="#ArialMT-76" x="255.664062"/>
      <use xlink:href="#ArialMT-65" x="305.664062"/>
      <use xlink:href="#ArialMT-20" x="361.279297"/>
      <use xlink:href="#ArialMT-74" x="389.0625"/>
      <use xlink:href="#ArialMT-72" x="416.845703"/>
      <use xlink:href="#ArialMT-61" x="450.146484"/>
      <use xlink:href="#ArialMT-6e" x="505.761719"/>
      <use xlink:href="#ArialMT-73" x="561.376953"/>
      <use xlink:href="#ArialMT-63" x="611.376953"/>
      <use xlink:href="#ArialMT-72" x="661.376953"/>
      <use xlink:href="#ArialMT-69" x="694.677734"/>
      <use xlink:href="#ArialMT-70" x="716.894531"/>
      <use xlink:href="#ArialMT-74" x="772.509766"/>
      <use xlink:href="#ArialMT-69" x="800.292969"/>
      <use xlink:href="#ArialMT-6f" x="822.509766"/>
      <use xlink:href="#ArialMT-6e" x="878.125"/>
      <use xlink:href="#ArialMT-20" x="933.740234"/>
      <use xlink:href="#ArialMT-72" x="961.523438"/>
      <use xlink:href="#ArialMT-61" x="994.824219"/>
      <use xlink:href="#ArialMT-74" x="1050.439453"/>
      <use xlink:href="#ArialMT-65" x="1078.222656"/>
      <use xlink:href="#ArialMT-20" x="1133.837891"/>
      <use xlink:href="#ArialMT-4e" x="1161.621094"/>
      <use xlink:href="#ArialMT-50" x="1233.837891"/>
     </g>
    </g>
   </g>
   <g id="matplotlib.axis_2">
    <g id="ytick_1">
     <g id="line2d_6">
      <defs>
       <path id="m70b91bc238" d="M 0 0 
L -3.5 0 
" style="stroke: #000000; stroke-width: 0.8"/>
      </defs>
      <g>
       <use xlink:href="#m70b91bc238" x="45.854375" y="159.334688" style="stroke: #000000; stroke-width: 0.8"/>
      </g>
     </g>
     <g id="text_7">
      <!-- 0.2 -->
      <g transform="translate(22.174375 163.629375) scale(0.12 -0.12)">
       <use xlink:href="#ArialMT-30"/>
       <use xlink:href="#ArialMT-2e" x="55.615234"/>
       <use xlink:href="#ArialMT-32" x="83.398438"/>
      </g>
     </g>
    </g>
    <g id="ytick_2">
     <g id="line2d_7">
      <g>
       <use xlink:href="#m70b91bc238" x="45.854375" y="122.374688" style="stroke: #000000; stroke-width: 0.8"/>
      </g>
     </g>
     <g id="text_8">
      <!-- 0.4 -->
      <g transform="translate(22.174375 126.669375) scale(0.12 -0.12)">
       <use xlink:href="#ArialMT-30"/>
       <use xlink:href="#ArialMT-2e" x="55.615234"/>
       <use xlink:href="#ArialMT-34" x="83.398438"/>
      </g>
     </g>
    </g>
    <g id="ytick_3">
     <g id="line2d_8">
      <g>
       <use xlink:href="#m70b91bc238" x="45.854375" y="85.414688" style="stroke: #000000; stroke-width: 0.8"/>
      </g>
     </g>
     <g id="text_9">
      <!-- 0.6 -->
      <g transform="translate(22.174375 89.709375) scale(0.12 -0.12)">
       <use xlink:href="#ArialMT-30"/>
       <use xlink:href="#ArialMT-2e" x="55.615234"/>
       <use xlink:href="#ArialMT-36" x="83.398438"/>
      </g>
     </g>
    </g>
    <g id="ytick_4">
     <g id="line2d_9">
      <g>
       <use xlink:href="#m70b91bc238" x="45.854375" y="48.454688" style="stroke: #000000; stroke-width: 0.8"/>
      </g>
     </g>
     <g id="text_10">
      <!-- 0.8 -->
      <g transform="translate(22.174375 52.749375) scale(0.12 -0.12)">
       <use xlink:href="#ArialMT-30"/>
       <use xlink:href="#ArialMT-2e" x="55.615234"/>
       <use xlink:href="#ArialMT-38" x="83.398438"/>
      </g>
     </g>
    </g>
    <g id="ytick_5">
     <g id="line2d_10">
      <g>
       <use xlink:href="#m70b91bc238" x="45.854375" y="11.494688" style="stroke: #000000; stroke-width: 0.8"/>
      </g>
     </g>
     <g id="text_11">
      <!-- 1.0 -->
      <g transform="translate(22.174375 15.789375) scale(0.12 -0.12)">
       <use xlink:href="#ArialMT-31"/>
       <use xlink:href="#ArialMT-2e" x="55.615234"/>
       <use xlink:href="#ArialMT-30" x="83.398438"/>
      </g>
     </g>
    </g>
    <g id="text_12">
     <!-- Relative transcription rate Pol -->
     <g transform="translate(15.789375 173.019375) rotate(-90) scale(0.12 -0.12)">
      <use xlink:href="#ArialMT-52"/>
      <use xlink:href="#ArialMT-65" x="72.216797"/>
      <use xlink:href="#ArialMT-6c" x="127.832031"/>
      <use xlink:href="#ArialMT-61" x="150.048828"/>
      <use xlink:href="#ArialMT-74" x="205.664062"/>
      <use xlink:href="#ArialMT-69" x="233.447266"/>
      <use xlink:href="#ArialMT-76" x="255.664062"/>
      <use xlink:href="#ArialMT-65" x="305.664062"/>
      <use xlink:href="#ArialMT-20" x="361.279297"/>
      <use xlink:href="#ArialMT-74" x="389.0625"/>
      <use xlink:href="#ArialMT-72" x="416.845703"/>
      <use xlink:href="#ArialMT-61" x="450.146484"/>
      <use xlink:href="#ArialMT-6e" x="505.761719"/>
      <use xlink:href="#ArialMT-73" x="561.376953"/>
      <use xlink:href="#ArialMT-63" x="611.376953"/>
      <use xlink:href="#ArialMT-72" x="661.376953"/>
      <use xlink:href="#ArialMT-69" x="694.677734"/>
      <use xlink:href="#ArialMT-70" x="716.894531"/>
      <use xlink:href="#ArialMT-74" x="772.509766"/>
      <use xlink:href="#ArialMT-69" x="800.292969"/>
      <use xlink:href="#ArialMT-6f" x="822.509766"/>
      <use xlink:href="#ArialMT-6e" x="878.125"/>
      <use xlink:href="#ArialMT-20" x="933.740234"/>
      <use xlink:href="#ArialMT-72" x="961.523438"/>
      <use xlink:href="#ArialMT-61" x="994.824219"/>
      <use xlink:href="#ArialMT-74" x="1050.439453"/>
      <use xlink:href="#ArialMT-65" x="1078.222656"/>
      <use xlink:href="#ArialMT-20" x="1133.837891"/>
      <use xlink:href="#ArialMT-50" x="1161.621094"/>
      <use xlink:href="#ArialMT-6f" x="1228.320312"/>
      <use xlink:href="#ArialMT-6c" x="1283.935547"/>
     </g>
    </g>
   </g>
   <g id="QuadContourSet_2">
    <path d="M 58.218168 177.814688 
L 60.430702 176.467028 
L 64.074783 174.661657 
L 64.656219 174.420402 
L 67.718865 173.031804 
L 71.362946 171.494669 
L 72.545167 171.026116 
L 75.007028 169.96878 
L 78.65111 168.420835 
L 80.515375 167.63183 
L 82.295191 166.818205 
L 85.939273 165.144838 
L 87.89102 164.237545 
L 89.583355 163.389784 
L 93.227436 161.54549 
L 94.606569 160.843259 
L 96.871518 159.603381 
L 100.515599 157.568987 
L 100.733108 157.448973 
L 104.159681 155.421224 
L 106.435468 154.054688 
L 107.803763 153.17463 
L 111.447844 150.822435 
L 111.702069 150.660402 
L 115.091926 148.351937 
L 116.683747 147.266116 
L 118.736008 145.772375 
L 121.355978 143.87183 
L 122.380089 143.080235 
L 125.772656 140.477545 
L 126.024171 140.272211 
L 129.668253 137.341764 
L 129.994101 137.083259 
L 133.312334 134.288505 
L 134.033488 133.688973 
L 136.956416 131.112475 
L 137.898534 130.294688 
L 140.600497 127.810899 
L 141.608376 126.900402 
L 144.244579 124.381332 
L 145.178179 123.506116 
L 147.888661 120.821626 
L 148.620195 120.11183 
L 151.532742 117.129554 
L 151.943963 116.717545 
L 155.158339 113.323259 
L 155.176824 113.302783 
L 158.297995 109.928973 
L 158.820906 109.333902 
L 161.343371 106.534688 
L 162.464987 105.225729 
L 164.298486 103.140402 
L 166.109069 100.976699 
L 167.166203 99.746116 
L 169.753151 96.585169 
L 169.949277 96.35183 
L 172.689984 92.957545 
L 173.397232 92.041025 
L 175.363496 89.563259 
L 177.041314 87.348443 
L 177.960348 86.168973 
L 180.492135 82.774688 
L 180.685395 82.505995 
L 182.99993 79.380402 
L 184.329477 77.503161 
L 185.4357 75.986116 
L 187.808554 72.59183 
L 187.973559 72.347848 
L 190.168521 69.197545 
L 191.61764 67.026781 
L 192.459085 65.803259 
L 194.708727 62.408973 
L 195.261722 61.545558 
L 196.932407 59.014688 
L 198.905804 55.899575 
L 199.088053 55.620402 
L 201.241038 52.226116 
L 202.549885 50.081283 
L 203.335838 48.83183 
L 205.402216 45.437545 
L 206.193967 44.093752 
L 207.439654 42.043259 
L 209.430126 38.648973 
L 209.838048 37.933433 
L 211.412878 35.254688 
L 213.336258 31.860402 
L 213.48213 31.596495 
L 215.266609 28.466116 
L 217.126212 25.079835 
L 217.130744 25.07183 
L 219.009971 21.677545 
L 220.770293 18.379488 
L 220.823253 18.283259 
L 222.650791 14.888973 
L 224.414375 11.494789 
" clip-path="url(#p38695d9a2f)" style="fill: none; stroke: #000000"/>
   </g>
   <g id="patch_3">
    <path d="M 45.854375 177.814688 
L 45.854375 11.494688 
" style="fill: none; stroke: #000000; stroke-width: 0.8; stroke-linejoin: miter; stroke-linecap: square"/>
   </g>
   <g id="patch_4">
    <path d="M 224.414375 177.814688 
L 224.414375 11.494688 
" style="fill: none; stroke: #000000; stroke-width: 0.8; stroke-linejoin: miter; stroke-linecap: square"/>
   </g>
   <g id="patch_5">
    <path d="M 45.854375 177.814688 
L 224.414375 177.814688 
" style="fill: none; stroke: #000000; stroke-width: 0.8; stroke-linejoin: miter; stroke-linecap: square"/>
   </g>
   <g id="patch_6">
    <path d="M 45.854375 11.494688 
L 224.414375 11.494688 
" style="fill: none; stroke: #000000; stroke-width: 0.8; stroke-linejoin: miter; stroke-linecap: square"/>
   </g>
  </g>
  <g id="axes_2">
   <g id="patch_7">
    <path d="M 240.254375 115.174688 
L 244.574375 115.174688 
L 244.574375 28.774688 
L 240.254375 28.774688 
z
" style="fill: #ffffff"/>
   </g>
   <g id="QuadMesh_1">
    <path d="M 240.254375 115.174688 
L 244.574375 115.174688 
L 244.574375 110.854688 
L 240.254375 110.854688 
L 240.254375 115.174688 
" clip-path="url(#p6f7762fd8a)" style="fill: #52886a"/>
    <path d="M 240.254375 110.854688 
L 244.574375 110.854688 
L 244.574375 106.534688 
L 240.254375 106.534688 
L 240.254375 110.854688 
" clip-path="url(#p6f7762fd8a)" style="fill: #639378"/>
    <path d="M 240.254375 106.534688 
L 244.574375 106.534688 
L 244.574375 102.214688 
L 240.254375 102.214688 
L 240.254375 106.534688 
" clip-path="url(#p6f7762fd8a)" style="fill: #739e87"/>
    <path d="M 240.254375 102.214688 
L 244.574375 102.214688 
L 244.574375 97.894688 
L 240.254375 97.894688 
L 240.254375 102.214688 
" clip-path="url(#p6f7762fd8a)" style="fill: #83a994"/>
    <path d="M 240.254375 97.894688 
L 244.574375 97.894688 
L 244.574375 93.574688 
L 240.254375 93.574688 
L 240.254375 97.894688 
" clip-path="url(#p6f7762fd8a)" style="fill: #93b4a2"/>
    <path d="M 240.254375 93.574688 
L 244.574375 93.574688 
L 244.574375 89.254688 
L 240.254375 89.254688 
L 240.254375 93.574688 
" clip-path="url(#p6f7762fd8a)" style="fill: #a4c0b1"/>
    <path d="M 240.254375 89.254688 
L 244.574375 89.254688 
L 244.574375 84.934688 
L 240.254375 84.934688 
L 240.254375 89.254688 
" clip-path="url(#p6f7762fd8a)" style="fill: #b5ccbf"/>
    <path d="M 240.254375 84.934688 
L 244.574375 84.934688 
L 244.574375 80.614688 
L 240.254375 80.614688 
L 240.254375 84.934688 
" clip-path="url(#p6f7762fd8a)" style="fill: #c6d7cd"/>
    <path d="M 240.254375 80.614688 
L 244.574375 80.614688 
L 244.574375 76.294688 
L 240.254375 76.294688 
L 240.254375 80.614688 
" clip-path="url(#p6f7762fd8a)" style="fill: #d5e2da"/>
    <path d="M 240.254375 76.294688 
L 244.574375 76.294688 
L 244.574375 71.974688 
L 240.254375 71.974688 
L 240.254375 76.294688 
" clip-path="url(#p6f7762fd8a)" style="fill: #e6ede9"/>
    <path d="M 240.254375 71.974688 
L 244.574375 71.974688 
L 244.574375 67.654688 
L 240.254375 67.654688 
L 240.254375 71.974688 
" clip-path="url(#p6f7762fd8a)" style="fill: #eee9ef"/>
    <path d="M 240.254375 67.654688 
L 244.574375 67.654688 
L 244.574375 63.334688 
L 240.254375 63.334688 
L 240.254375 67.654688 
" clip-path="url(#p6f7762fd8a)" style="fill: #e7dae9"/>
    <path d="M 240.254375 63.334688 
L 244.574375 63.334688 
L 244.574375 59.014688 
L 240.254375 59.014688 
L 240.254375 63.334688 
" clip-path="url(#p6f7762fd8a)" style="fill: #dfcae3"/>
    <path d="M 240.254375 59.014688 
L 244.574375 59.014688 
L 244.574375 54.694688 
L 240.254375 54.694688 
L 240.254375 59.014688 
" clip-path="url(#p6f7762fd8a)" style="fill: #d9bbde"/>
    <path d="M 240.254375 54.694688 
L 244.574375 54.694688 
L 244.574375 50.374688 
L 240.254375 50.374688 
L 240.254375 54.694688 
" clip-path="url(#p6f7762fd8a)" style="fill: #d1abd8"/>
    <path d="M 240.254375 50.374688 
L 244.574375 50.374688 
L 244.574375 46.054688 
L 240.254375 46.054688 
L 240.254375 50.374688 
" clip-path="url(#p6f7762fd8a)" style="fill: #c99bd1"/>
    <path d="M 240.254375 46.054688 
L 244.574375 46.054688 
L 244.574375 41.734688 
L 240.254375 41.734688 
L 240.254375 46.054688 
" clip-path="url(#p6f7762fd8a)" style="fill: #c28bcb"/>
    <path d="M 240.254375 41.734688 
L 244.574375 41.734688 
L 244.574375 37.414688 
L 240.254375 37.414688 
L 240.254375 41.734688 
" clip-path="url(#p6f7762fd8a)" style="fill: #bb7dc6"/>
    <path d="M 240.254375 37.414688 
L 244.574375 37.414688 
L 244.574375 33.094688 
L 240.254375 33.094688 
L 240.254375 37.414688 
" clip-path="url(#p6f7762fd8a)" style="fill: #b46dc0"/>
    <path d="M 240.254375 33.094688 
L 244.574375 33.094688 
L 244.574375 28.774688 
L 240.254375 28.774688 
L 240.254375 33.094688 
" clip-path="url(#p6f7762fd8a)" style="fill: #ac5db9"/>
   </g>
   <g id="matplotlib.axis_3"/>
   <g id="matplotlib.axis_4">
    <g id="ytick_6">
     <g id="line2d_11">
      <defs>
       <path id="mc677df30ef" d="M 0 0 
L 3.5 0 
" style="stroke: #000000; stroke-width: 0.8"/>
      </defs>
      <g>
       <use xlink:href="#mc677df30ef" x="244.574375" y="115.174688" style="stroke: #000000; stroke-width: 0.8"/>
      </g>
     </g>
     <g id="text_13">
      <!-- 0 -->
      <g transform="translate(251.574375 119.469375) scale(0.12 -0.12)">
       <use xlink:href="#ArialMT-30"/>
      </g>
     </g>
    </g>
    <g id="ytick_7">
     <g id="line2d_12">
      <g>
       <use xlink:href="#mc677df30ef" x="244.574375" y="100.774688" style="stroke: #000000; stroke-width: 0.8"/>
      </g>
     </g>
     <g id="text_14">
      <!-- 2 -->
      <g transform="translate(251.574375 105.069375) scale(0.12 -0.12)">
       <use xlink:href="#ArialMT-32"/>
      </g>
     </g>
    </g>
    <g id="ytick_8">
     <g id="line2d_13">
      <g>
       <use xlink:href="#mc677df30ef" x="244.574375" y="86.374688" style="stroke: #000000; stroke-width: 0.8"/>
      </g>
     </g>
     <g id="text_15">
      <!-- 4 -->
      <g transform="translate(251.574375 90.669375) scale(0.12 -0.12)">
       <use xlink:href="#ArialMT-34"/>
      </g>
     </g>
    </g>
    <g id="ytick_9">
     <g id="line2d_14">
      <g>
       <use xlink:href="#mc677df30ef" x="244.574375" y="71.974688" style="stroke: #000000; stroke-width: 0.8"/>
      </g>
     </g>
     <g id="text_16">
      <!-- 6 -->
      <g transform="translate(251.574375 76.269375) scale(0.12 -0.12)">
       <use xlink:href="#ArialMT-36"/>
      </g>
     </g>
    </g>
    <g id="ytick_10">
     <g id="line2d_15">
      <g>
       <use xlink:href="#mc677df30ef" x="244.574375" y="57.574688" style="stroke: #000000; stroke-width: 0.8"/>
      </g>
     </g>
     <g id="text_17">
      <!-- 8 -->
      <g transform="translate(251.574375 61.869375) scale(0.12 -0.12)">
       <use xlink:href="#ArialMT-38"/>
      </g>
     </g>
    </g>
    <g id="ytick_11">
     <g id="line2d_16">
      <g>
       <use xlink:href="#mc677df30ef" x="244.574375" y="43.174688" style="stroke: #000000; stroke-width: 0.8"/>
      </g>
     </g>
     <g id="text_18">
      <!-- 10 -->
      <g transform="translate(251.574375 47.469375) scale(0.12 -0.12)">
       <use xlink:href="#ArialMT-31"/>
       <use xlink:href="#ArialMT-30" x="55.615234"/>
      </g>
     </g>
    </g>
    <g id="text_19">
     <!-- Relative -->
     <g transform="translate(278.244688 80.564063) scale(0.12 -0.12)">
      <use xlink:href="#ArialMT-52"/>
      <use xlink:href="#ArialMT-65" x="72.216797"/>
      <use xlink:href="#ArialMT-6c" x="127.832031"/>
      <use xlink:href="#ArialMT-61" x="150.048828"/>
      <use xlink:href="#ArialMT-74" x="205.664062"/>
      <use xlink:href="#ArialMT-69" x="233.447266"/>
      <use xlink:href="#ArialMT-76" x="255.664062"/>
      <use xlink:href="#ArialMT-65" x="305.664062"/>
     </g>
     <!-- RIG-I activity -->
     <g transform="translate(265.585625 93.431813) scale(0.12 -0.12)">
      <defs>
       <path id="ArialMT-49" d="M 597 0 
L 597 4581 
L 1203 4581 
L 1203 0 
L 597 0 
z
" transform="scale(0.015625)"/>
       <path id="ArialMT-47" d="M 2638 1797 
L 2638 2334 
L 4578 2338 
L 4578 638 
Q 4131 281 3656 101 
Q 3181 -78 2681 -78 
Q 2006 -78 1454 211 
Q 903 500 622 1047 
Q 341 1594 341 2269 
Q 341 2938 620 3517 
Q 900 4097 1425 4378 
Q 1950 4659 2634 4659 
Q 3131 4659 3532 4498 
Q 3934 4338 4162 4050 
Q 4391 3763 4509 3300 
L 3963 3150 
Q 3859 3500 3706 3700 
Q 3553 3900 3268 4020 
Q 2984 4141 2638 4141 
Q 2222 4141 1919 4014 
Q 1616 3888 1430 3681 
Q 1244 3475 1141 3228 
Q 966 2803 966 2306 
Q 966 1694 1177 1281 
Q 1388 869 1791 669 
Q 2194 469 2647 469 
Q 3041 469 3416 620 
Q 3791 772 3984 944 
L 3984 1797 
L 2638 1797 
z
" transform="scale(0.015625)"/>
       <path id="ArialMT-2d" d="M 203 1375 
L 203 1941 
L 1931 1941 
L 1931 1375 
L 203 1375 
z
" transform="scale(0.015625)"/>
       <path id="ArialMT-79" d="M 397 -1278 
L 334 -750 
Q 519 -800 656 -800 
Q 844 -800 956 -737 
Q 1069 -675 1141 -563 
Q 1194 -478 1313 -144 
Q 1328 -97 1363 -6 
L 103 3319 
L 709 3319 
L 1400 1397 
Q 1534 1031 1641 628 
Q 1738 1016 1872 1384 
L 2581 3319 
L 3144 3319 
L 1881 -56 
Q 1678 -603 1566 -809 
Q 1416 -1088 1222 -1217 
Q 1028 -1347 759 -1347 
Q 597 -1347 397 -1278 
z
" transform="scale(0.015625)"/>
      </defs>
      <use xlink:href="#ArialMT-52"/>
      <use xlink:href="#ArialMT-49" x="72.216797"/>
      <use xlink:href="#ArialMT-47" x="100"/>
      <use xlink:href="#ArialMT-2d" x="177.783203"/>
      <use xlink:href="#ArialMT-49" x="211.083984"/>
      <use xlink:href="#ArialMT-20" x="238.867188"/>
      <use xlink:href="#ArialMT-61" x="266.650391"/>
      <use xlink:href="#ArialMT-63" x="322.265625"/>
      <use xlink:href="#ArialMT-74" x="372.265625"/>
      <use xlink:href="#ArialMT-69" x="400.048828"/>
      <use xlink:href="#ArialMT-76" x="422.265625"/>
      <use xlink:href="#ArialMT-69" x="472.265625"/>
      <use xlink:href="#ArialMT-74" x="494.482422"/>
      <use xlink:href="#ArialMT-79" x="522.265625"/>
     </g>
    </g>
   </g>
   <g id="LineCollection_1"/>
   <g id="patch_8">
    <path d="M 240.254375 115.174688 
L 242.414375 115.174688 
L 244.574375 115.174688 
L 244.574375 28.774688 
L 242.414375 28.774688 
L 240.254375 28.774688 
L 240.254375 115.174688 
z
" style="fill: none; stroke: #000000; stroke-width: 0.8; stroke-linejoin: miter; stroke-linecap: square"/>
   </g>
  </g>
 </g>
 <defs>
  <clipPath id="p38695d9a2f">
   <rect x="45.854375" y="11.494688" width="178.56" height="166.32"/>
  </clipPath>
  <clipPath id="p6f7762fd8a">
   <rect x="240.254375" y="28.774688" width="4.32" height="86.4"/>
  </clipPath>
 </defs>
</svg>
